<?xml version="1.0" encoding="UTF-8" standalone="no"?>
<!-- Created with Inkscape (http://www.inkscape.org/) -->

<svg
   width="139.57375mm"
   height="105.61014mm"
   viewBox="0 0 139.57374 105.61014"
   version="1.1"
   id="svg5"
   inkscape:version="1.1.1 (3bf5ae0d25, 2021-09-20)"
   sodipodi:docname="3-sill.svg"
   xmlns:inkscape="http://www.inkscape.org/namespaces/inkscape"
   xmlns:sodipodi="http://sodipodi.sourceforge.net/DTD/sodipodi-0.dtd"
   xmlns="http://www.w3.org/2000/svg"
   xmlns:svg="http://www.w3.org/2000/svg">
  <sodipodi:namedview
     id="namedview7"
     pagecolor="#ffffff"
     bordercolor="#666666"
     borderopacity="1.0"
     inkscape:pageshadow="2"
     inkscape:pageopacity="0.0"
     inkscape:pagecheckerboard="true"
     inkscape:document-units="mm"
     showgrid="false"
     fit-margin-top="0"
     fit-margin-left="0"
     fit-margin-right="0"
     fit-margin-bottom="0"
     inkscape:zoom="1.5518659"
     inkscape:cx="216.83575"
     inkscape:cy="200.08172"
     inkscape:window-width="1889"
     inkscape:window-height="1058"
     inkscape:window-x="31"
     inkscape:window-y="0"
     inkscape:window-maximized="1"
     inkscape:current-layer="layer1" />
  <defs
     id="defs2">
    <clipPath
       clipPathUnits="userSpaceOnUse"
       id="clipPath16">
      <path
         d="M 0,841.89 H 595.28 V 0 H 0 Z"
         id="path14" />
    </clipPath>
  </defs>
  <g
     inkscape:label="Layer 1"
     inkscape:groupmode="layer"
     id="layer1"
     transform="translate(-11.153625,-0.77554685)">
    <g
       id="g2237">
      <path
         style="fill:#65c4e0;fill-opacity:1;stroke-width:0.264583"
         d="m 13.231171,48.600782 c 3.884749,-0.267041 10.801175,-0.549586 14.38981,-0.587844 1.967809,-0.02097 5.593322,-0.220128 8.056696,-0.442562 4.967252,-0.448517 6.917291,-0.254114 17.669361,1.761477 6.020807,1.128671 5.981842,1.134291 4.031622,-0.58168 -0.293363,-0.258133 -0.218641,-0.410046 0.398459,-0.809735 l 0.759583,-0.491975 -2.921653,-2.442117 c -1.606911,-1.343162 -4.669172,-3.721791 -6.805029,-5.285838 -3.786498,-2.772782 -9.224082,-7.073004 -9.518461,-7.52751 -0.08081,-0.124763 0.851301,-0.273495 2.07136,-0.330519 l 2.218276,-0.103672 3.424803,2.037423 c 4.056803,2.413408 8.896864,5.529545 13.790507,8.878641 1.952359,1.336141 3.506861,2.357907 3.454458,2.27058 -0.05197,-0.0876 -1.366045,-1.467022 -2.919188,-3.066006 -3.38242,-3.482253 -7.974528,-8.717159 -11.387202,-12.981208 -2.849295,-3.560107 -7.540493,-9.827691 -7.499477,-10.019522 0.03478,-0.16266 4.476381,3.274911 7.692865,5.953863 5.404002,4.500918 8.453525,7.394072 13.921117,13.207296 l 3.316485,3.526125 -4.937756,-7.664472 C 57.363773,26.025363 51.74898,16.74681 47.15957,8.65382 L 44.5522,4.055965 45.545817,2.684322 c 0.546484,-0.754399 1.147304,-1.558345 1.335159,-1.78655 0.335081,-0.407059 0.440325,-0.256064 5.563218,7.982333 6.129631,9.85735 10.524297,17.280734 14.14606,23.895179 3.541307,6.467526 7.437974,12.820385 6.988172,11.393056 C 73.39693,43.592383 72.572144,41.00579 71.745578,38.420349 69.8212,32.401045 67.268552,23.194222 67.485141,23.05394 c 0.09174,-0.05942 0.715073,0.211029 1.385194,0.600988 l 1.218402,0.709017 1.823852,4.649694 c 1.003121,2.557329 1.971012,5.121796 2.15088,5.698808 0.17986,0.577018 0.713221,1.646607 1.185241,2.37687 l 0.857775,1.328038 -0.237917,-4.566605 c -0.381959,-7.331816 -0.455351,-18.307102 -0.121933,-18.235807 0.523681,0.11197 2.930256,10.415665 3.620635,15.501624 0.423644,3.120986 0.462636,3.247723 0.607571,1.974913 0.798207,-7.008973 2.328601,-16.75013 3.914894,-24.918278 l 0.9804,-5.048246 -0.08249,2.732901 c -0.214055,7.091742 -0.828511,15.876895 -1.697417,24.268972 -0.250143,2.415926 -0.352299,4.0274 -0.227012,3.581057 1.539228,-5.483691 5.191916,-16.890058 5.979926,-18.673734 0.284254,-0.643399 0.382646,-0.68274 1.59294,-0.63693 1.176485,0.04453 3.193231,0.943939 3.630531,1.619107 0.274827,0.424319 -3.404117,12.308759 -5.938075,19.182315 -0.613156,1.663244 -1.094715,3.055149 -1.070127,3.093112 0.02457,0.03794 0.561673,-0.898325 1.193531,-2.080656 2.498151,-4.674584 10.795107,-18.457285 12.290648,-20.416942 0.40335,-0.528517 0.4104,-0.504535 0.13096,0.445533 -0.16244,0.552261 -1.199602,3.477166 -2.304806,6.499784 l -2.009462,5.495667 1.501801,-0.574966 c 0.82599,-0.316235 1.597784,-0.529493 1.715098,-0.473911 0.316564,0.149995 -1.201213,5.194569 -2.420842,8.046041 -1.094058,2.557876 -3.119865,5.415863 -7.008944,9.888167 -0.967313,1.11236 -1.70793,2.033344 -1.645821,2.046624 0.06209,0.01328 1.69543,-1.349124 3.629617,-3.027565 6.443937,-5.591872 13.268569,-11.058162 24.476339,-19.604668 1.10941,-0.845975 1.07297,-0.773467 -0.82641,1.644277 -5.25226,6.685723 -8.8389,10.329387 -15.982788,16.236882 l -3.16903,2.620565 3.323202,-1.926333 C 106.65118,39.226693 118.73563,33.005803 127.6604,28.84612 c 2.37578,-1.107307 4.45064,-1.846238 7.30021,-2.599874 l 3.98107,-1.052874 0.89307,1.232251 0.89308,1.232258 -1.70046,0.928115 c -0.93527,0.51045 -3.41553,1.893907 -5.51174,3.074305 -6.93673,3.906146 -19.48522,10.488343 -22.0662,11.57461 l -0.81287,0.342125 1.39915,0.658468 c 0.84245,0.396475 2.6099,0.786952 4.44214,0.981382 1.67363,0.177605 3.03084,0.379645 3.01602,0.448986 -0.0875,0.409404 -17.99032,5.863818 -25.322289,7.714895 -1.331793,0.33624 -2.476469,0.646971 -2.543699,0.690515 -0.06723,0.04354 1.83643,-0.04713 4.230359,-0.201517 2.393938,-0.154391 5.013259,-0.268979 5.820719,-0.254655 1.9149,0.03398 9.83758,0.537165 9.89677,0.628559 0.0883,0.136248 -5.26469,0.960766 -10.3189,1.58943 -2.807903,0.349263 -4.947524,0.659561 -4.754714,0.689565 0.192811,0.03 2.175375,0.134255 4.405684,0.231665 8.12933,0.35503 25.93532,1.87384 30.69726,2.61838 l 1.22764,0.19195 -1.38879,0.0459 c -6.0946,0.20156 -26.88356,-0.4468 -35.305643,-1.10111 -2.233937,-0.17355 -4.114712,-0.28121 -4.1795,-0.23925 -0.237337,0.15372 4.202325,1.60042 6.799734,2.21575 4.144759,0.9819 9.645319,2.52628 15.953019,4.4791 6.82411,2.1127 8.14083,2.57367 8.08586,2.83076 -0.0226,0.10579 -0.71538,0.65464 -1.53946,1.21962 -1.27421,0.87356 -1.83792,1.08533 -3.7688,1.41535 -2.18102,0.3728 -2.59871,0.32059 -10.60005,-1.32518 -4.58126,-0.9423 -8.174738,-1.60077 -7.985516,-1.46325 0.18925,0.13749 2.105686,1.4496 4.258816,2.91577 4.93286,3.35901 12.19527,8.76833 12.13713,9.0402 -0.0242,0.11326 -0.66922,0.43703 -1.43293,0.72014 l -1.38891,0.51422 -5.4797,-3.58033 c -6.68043,-4.36488 -11.679844,-7.78722 -16.288749,-11.15043 -3.524978,-2.57224 -4.461679,-3.07607 -2.428751,-1.30637 5.577461,4.85528 15.51979,15.68012 22.48482,24.48065 1.49681,1.89127 3.09306,3.90726 3.54722,4.47999 0.77418,0.97627 0.67493,0.93223 -1.58833,-0.70502 -1.32775,-0.96049 -4.12713,-3.11929 -6.22083,-4.79734 l -3.80672,-3.05098 0.71882,1.42581 c 1.77079,3.51239 4.69967,9.56943 4.67747,9.67322 -0.0347,0.1625 -1.82643,-1.81349 -5.45567,-6.01685 -2.881127,-3.33692 -4.831402,-5.74667 -12.888596,-15.92506 -3.913762,-4.94415 -3.947657,-4.96429 -2.538212,-1.50834 2.073148,5.0833 7.05395,18.77968 8.628802,23.7278 2.145312,6.740451 3.083045,9.828681 2.977609,9.806131 -0.238421,-0.051 -4.779346,-5.72915 -5.623167,-7.031451 -1.148216,-1.77229 -3.941636,-7.5939 -5.91247,-12.32239 -1.629181,-3.90881 -5.992289,-13.01494 -6.268981,-13.08382 -0.04985,-0.0124 -0.05427,1.19626 -0.01,2.68593 0.0443,1.48965 0.0335,4.50264 -0.02401,6.69552 l -0.10455,3.98706 -0.836628,-0.54038 c -0.46015,-0.2972 -0.885698,-0.56243 -0.945678,-0.58938 -0.05997,-0.0269 -0.687217,2.79083 -1.393871,6.26175 l -1.28484,6.31076 -0.179489,-3.03607 c -0.216865,-3.66802 -0.322848,-9.37597 -0.254827,-13.7238 l 0.05012,-3.20341 -0.95482,1.20405 c -0.525146,0.66222 -1.223109,1.91588 -1.551016,2.78591 -1.326366,3.51921 -7.228239,16.41352 -9.024863,19.717371 -0.794398,1.46084 -0.683017,0.7609 1.396731,-8.777361 l 2.259956,-10.36479 -2.117445,1.58083 c -1.164574,0.8695 -2.630057,1.99399 -3.256571,2.49895 l -1.139132,0.9181 0.458513,-1.97682 c 0.25218,-1.08725 0.721674,-2.86186 1.043321,-3.94356 l 0.584809,-1.96675 -0.770426,-0.34036 c -0.755857,-0.33393 -0.769652,-0.368 -0.729679,-1.80103 0.0224,-0.80335 0.0018,-1.43541 -0.04587,-1.40455 -0.04767,0.0309 -1.286403,1.24975 -2.75282,2.70867 -3.732526,3.71341 -12.661031,11.79955 -12.796992,11.58963 -0.03686,-0.0569 -0.150028,-0.87465 -0.251536,-1.81729 l -0.184557,-1.71387 2.301857,-2.68269 c 2.648934,-3.08719 9.527077,-10.52941 11.314233,-12.24212 0.666562,-0.6388 1.118777,-1.20559 1.00492,-1.25953 -0.113824,-0.054 -0.744336,0.0692 -1.401066,0.27358 -0.656731,0.20442 -1.283108,0.32948 -1.391954,0.2779 -0.32264,-0.15286 9.71495,-8.14276 13.101043,-10.42839 1.353091,-0.91332 0.993004,-0.75075 -1.573103,0.71043 -5.317147,3.02762 -12.792155,6.7813 -16.186843,8.12845 -3.322015,1.31832 -11.286005,4.06636 -11.594233,4.0007 -0.345413,-0.0736 11.18018,-6.37536 16.411878,-8.97342 5.788891,-2.87476 5.71217,-2.81456 2.299099,-1.80402 -1.745753,0.51688 -5.63157,1.59206 -8.635159,2.38929 l -5.461062,1.4495 -1.376096,-0.7114 c -0.756845,-0.39127 -1.364596,-0.76515 -1.35055,-0.83084 0.0336,-0.15713 4.768468,-2.3303 7.322685,-3.36091 1.837042,-0.74122 2.06601,-0.89094 2.636,-1.72363 0.343313,-0.50154 0.560433,-0.92198 0.48248,-0.93431 -0.07792,-0.0123 -1.724083,-0.18551 -3.658064,-0.38485 -1.933982,-0.19934 -3.790703,-0.39751 -4.126039,-0.44038 -0.588869,-0.0753 -3.112096,-1.76495 -3.052426,-2.04403 0.05942,-0.27786 8.282817,-0.945559 14.847589,-1.205556 1.774937,-0.0703 3.066336,-0.157089 2.869781,-0.192877 -0.196528,-0.03576 -2.785181,-0.309235 -5.752536,-0.607702 C 43.047576,53.871014 25.44656,51.379445 13.796508,49.231169 l -2.642883,-0.487353 2.077137,-0.142782 z"
         id="path1594" />
      <path
         style="fill:#ffffff;fill-opacity:1;stroke-width:0.264583"
         d="m 41.516564,51.842357 c 2.274057,-0.152405 6.03548,-0.246907 7.700436,-0.193467 0.702621,0.02257 2.339406,-0.06122 3.637298,-0.186168 3.189254,-0.307018 4.301423,-0.201934 9.651912,0.912058 4.089777,0.851502 4.531097,0.889731 3.993899,0.346003 -0.506861,-0.513021 -0.541256,-0.667325 -0.213976,-0.960013 0.430518,-0.385023 0.0044,-0.761376 -7.556741,-6.674328 -1.735126,-1.356906 -3.094857,-2.504929 -3.021614,-2.551171 0.07323,-0.04623 0.672859,-0.111688 1.332475,-0.145435 1.04377,-0.05342 1.56781,0.171682 4.040611,1.735557 1.562722,0.988303 4.143142,2.698023 5.734265,3.799387 1.591122,1.101354 2.895882,1.974388 2.899465,1.940073 0.0036,-0.03437 -1.019876,-1.174463 -2.274349,-2.53366 -2.485549,-2.693041 -6.079939,-7.123551 -8.393457,-10.345938 l -1.468515,-2.045431 1.162804,0.830377 c 3.089275,2.206101 10.158384,8.866361 12.52793,11.803382 0.27593,0.342081 -1.74564,-3.098618 -4.492462,-7.645939 -2.746837,-4.547313 -5.646935,-9.446409 -6.444674,-10.886876 l -1.450434,-2.619033 0.572903,-0.816451 c 0.315093,-0.449046 0.67717,-0.882282 0.804607,-0.96274 0.273975,-0.172975 8.794155,13.80737 11.016766,18.076803 0.775425,1.489545 2.055067,3.849786 2.843644,5.244982 l 1.433777,2.536721 -0.815703,-2.770489 c -1.670786,-5.674785 -2.829753,-10.103752 -2.670285,-10.20443 0.09047,-0.05713 0.455495,0.101667 0.811152,0.352869 0.670036,0.47325 1.644715,2.625869 2.652852,5.859065 0.239521,0.768115 0.63767,1.551355 0.884797,1.740516 0.374423,0.28662 0.433086,-0.08116 0.351968,-2.206638 -0.148553,-3.89215 -0.111848,-9.947286 0.06006,-9.908441 0.27077,0.06119 1.326236,4.449401 1.777017,7.388179 l 0.437591,2.852757 0.199296,-1.220986 c 1.220171,-7.475552 2.150477,-12.716276 2.502228,-14.0959 l 0.427869,-1.678199 -0.08987,1.777708 c -0.183795,3.635572 -0.533861,8.090403 -0.879322,11.189842 -0.195751,1.756297 -0.394976,3.571755 -0.442712,4.034344 -0.04775,0.462592 0.156725,-0.03011 0.454365,-1.094959 0.297652,-1.064827 1.138085,-3.693079 1.867628,-5.840564 1.215125,-3.576834 1.38503,-3.912512 2.0245,-3.999781 0.383919,-0.05238 1.074737,0.125654 1.535147,0.39566 l 0.837097,0.490917 -0.464241,1.686543 c -0.255336,0.927603 -1.090529,3.482381 -1.855982,5.677287 -0.765454,2.194904 -1.429739,4.153567 -1.476186,4.352583 -0.04646,0.199023 1.122194,-1.629871 2.596974,-4.064187 1.474781,-2.434314 3.223092,-5.240771 3.885117,-6.23656 1.134565,-1.706548 1.185838,-1.753426 0.892746,-0.816225 -0.171023,0.546866 -0.781095,2.226175 -1.355699,3.731788 l -1.044747,2.737482 0.98953,-0.294871 0.989536,-0.294876 -0.383557,1.370249 c -0.745696,2.663996 -1.879168,4.809379 -3.708512,7.019298 -0.997354,1.204844 -1.752571,2.204354 -1.678251,2.221147 0.07433,0.01676 1.701473,-1.245366 3.615919,-2.804807 4.147785,-3.378639 10.083363,-7.967256 11.203908,-8.661402 1.174176,-0.727364 0.730676,-0.04313 -1.853667,2.859884 -1.850357,2.07853 -5.743538,5.659029 -8.560327,7.872822 -0.402578,0.316389 -0.06703,0.178789 0.74566,-0.305778 2.315581,-1.380673 9.307046,-4.934788 14.21268,-7.225003 3.77619,-1.762953 5.049,-2.227114 8.1913,-2.987185 2.04623,-0.494948 4.26935,-0.988163 4.94028,-1.096039 l 1.21985,-0.196133 -1.84343,1.045035 c -5.73344,3.250231 -10.71104,5.930253 -14.76495,7.949676 -2.517254,1.253959 -4.685482,2.348525 -4.818297,2.432374 -0.451909,0.285314 1.266577,0.909196 2.936417,1.066042 0.90924,0.08541 1.63781,0.223174 1.61905,0.306145 -0.0469,0.207745 -7.689742,2.499074 -11.929494,3.57649 -1.915298,0.486723 -3.66272,0.933805 -3.883151,0.993541 -0.220451,0.0597 0.554704,0.05853 1.722535,-0.0027 2.956536,-0.154959 4.611184,-0.144869 6.907186,0.0421 3.419398,0.278455 3.343225,0.312973 -2.189008,0.99197 -1.916222,0.23515 -3.32765,0.452859 -3.136516,0.483732 0.191139,0.03087 2.71072,0.230853 5.599067,0.444361 7.483631,0.553226 15.596651,1.522396 13.283291,1.586826 -3.04572,0.08481 -16.324482,-0.531132 -20.192071,-0.936623 -2.850977,-0.298895 -2.016112,0.101269 3.272604,1.568644 6.319309,1.753307 12.285317,3.728926 12.288577,4.069312 0.005,0.533399 -1.40452,1.187075 -3.01687,1.398983 -1.170483,0.153813 -2.811219,-0.06408 -6.22829,-0.827407 l -4.639184,-1.036263 1.948627,1.331903 c 1.071751,0.732552 3.247404,2.311807 4.834774,3.509457 2.606914,1.966892 2.850726,2.209382 2.520167,2.506478 -0.201293,0.180893 -0.613675,0.346764 -0.916462,0.368493 -0.605562,0.04353 -4.825169,-2.710792 -10.87801,-7.100565 -2.156613,-1.564059 -3.869782,-2.758807 -3.807048,-2.654986 0.06304,0.103605 0.796278,0.837534 1.63011,1.6305 2.59599,2.468777 6.19096,6.411648 9.083419,9.962462 3.911181,4.801418 4.937412,6.140577 4.657112,6.077236 -0.134356,-0.03035 -1.637084,-1.175524 -3.33952,-2.544852 -1.702444,-1.369317 -3.183933,-2.50968 -3.292204,-2.534151 -0.108283,-0.02445 0.03996,0.330543 0.329316,0.788912 0.662589,1.049477 2.722949,5.399278 2.537635,5.357401 -0.237951,-0.05377 -6.160402,-7.221287 -8.43326,-10.206157 -2.881615,-3.784334 -4.403124,-5.672873 -4.049181,-5.025943 0.881462,1.611104 5.898379,16.24899 6.897381,20.124487 0.285457,1.10743 0.273611,1.155054 -0.13862,0.556874 -0.247941,-0.359749 -1.03756,-1.398484 -1.754733,-2.308274 -1.266097,-1.606133 -2.769634,-4.510468 -4.221837,-8.155507 -0.877297,-2.201932 -2.794489,-6.395983 -3.262856,-7.13783 -0.380923,-0.603348 -0.434113,-0.338697 -0.462812,2.302306 -0.01784,1.641209 -0.07053,3.351705 -0.117095,3.801109 l -0.08467,0.817115 -0.437576,-0.409163 c -0.240698,-0.225026 -0.470089,-0.388642 -0.509829,-0.363542 -0.03973,0.02508 -0.423153,1.640016 -0.852021,3.58873 -0.752094,3.417346 -0.78265,3.489393 -0.860881,2.029797 -0.07189,-1.341385 -0.118325,-6.656421 -0.07866,-9.00481 l 0.01459,-0.864157 -0.636865,0.907612 c -0.350281,0.49918 -0.798491,1.332677 -0.996038,1.852214 -0.502335,1.32111 -3.937164,8.639162 -4.81056,10.24913 -0.632662,1.166206 -0.556868,0.593228 0.60636,-4.583882 l 1.329398,-5.916684 -1.935736,1.444914 -1.935744,1.444926 0.654339,-2.227998 c 0.510122,-1.736953 0.560396,-2.281313 0.228088,-2.469925 -0.280719,-0.159332 -0.414494,-0.486437 -0.391952,-0.958011 0.04437,-0.926083 -0.130946,-0.942013 -0.898451,-0.08157 -0.580768,0.651128 -7.507693,6.925172 -7.963593,7.213008 -0.111478,0.0704 -0.257454,-0.333423 -0.324415,-0.89732 -0.108906,-0.91714 0.0256,-1.196769 1.27466,-2.650944 0.768015,-0.894114 2.735621,-3.005957 4.372454,-4.692996 2.873867,-2.962034 2.944319,-3.059961 2.051695,-2.85191 l -0.924357,0.215482 0.694719,-0.634276 c 1.104116,-1.008059 4.909552,-3.916898 6.512158,-4.977827 1.048514,-0.694125 0.635746,-0.521184 -1.449045,0.607098 -4.332124,2.34455 -7.962491,3.965963 -11.730906,5.239318 -1.852416,0.625944 -3.355491,1.082608 -3.340179,1.014833 0.04092,-0.181068 6.112427,-3.406351 9.439337,-5.014325 2.86871,-1.386509 3.68655,-1.902354 2.086049,-1.315722 -0.464204,0.170136 -2.663442,0.775838 -4.887201,1.346002 -3.622705,0.928836 -4.131691,0.99124 -4.894131,0.600029 l -0.85094,-0.436629 1.182498,-0.531601 c 0.650376,-0.292374 1.921751,-0.828846 2.825288,-1.19215 1.06507,-0.428246 1.761674,-0.838898 1.980866,-1.167724 0.310604,-0.465976 0.142577,-0.531137 -2.067673,-0.80195 -2.01391,-0.246743 -4.006755,-1 -3.899646,-1.473998 0.02646,-0.117098 6.670414,-0.591757 8.44571,-0.60338 1.495049,-0.0098 0.299734,-0.219141 -5.453039,-0.955162 -5.372867,-0.687398 -14.578379,-2.148025 -18.777834,-2.97945 l -2.324421,-0.460185 1.801208,-0.120717 z m 42.973722,-0.668425 c 0.133384,-0.184098 0.0469,-0.203648 -0.220505,-0.04983 -0.241968,0.13919 -0.340731,0.275478 -0.219457,0.302894 0.121261,0.02741 0.31926,-0.08652 0.439954,-0.253075 z"
         id="path1884"
         inkscape:transform-center-x="4.5496181"
         inkscape:transform-center-y="3.5210769" />
    </g>
    <g
       id="g32871"
       transform="matrix(1.0570893,0,0,1.0570893,-11.047612,-36.619604)">
      <path
         id="path2780-6-7-2"
         style="opacity:0.25;fill:#000000;fill-opacity:1;stroke:none;stroke-width:0.264583px;stroke-linecap:butt;stroke-linejoin:miter;stroke-opacity:1"
         d="m 142.53109,105.70588 -6.23044,2.21895 -0.91331,1.72448 0.19791,1.09657 -0.57257,3.72742 0.94309,0.46095 -0.0584,0.2651 c -0.0189,-0.0183 -0.0375,-0.0368 -0.0568,-0.0548 -1.89179,-1.74893 -4.56154,-1.94372 -6.77685,-0.90693 l 0.99374,-6.24561 -5.45389,-2.15212 -0.91317,1.72424 0.0331,2.6231 -1.25729,-2.65049 -6.32909,-2.02822 -0.91285,1.72437 0.59067,3.72432 1.03921,0.15193 0.14418,1.91616 c -2.92215,-1.54853 -6.58178,-0.28845 -8.33851,2.59312 -0.0765,0.1255 -0.14853,0.25176 -0.21705,0.37827 l -3.12952,-7.10706 -5.341793,1.54823 -0.11266,0.6134 -3.090784,-0.55276 -0.913103,1.72426 1.485699,14.611 5.962951,-0.83665 0.91302,-1.72445 1.01864,2.02469 0.91315,-1.72446 0.47591,2.52338 6.4487,-0.58394 0.91321,-1.72447 -1.96069,-0.6542 c 2.09762,0.35127 4.1732,-0.62922 5.63842,-2.25877 l 0.185,2.46083 4.2323,-0.0982 0.31213,1.54668 4.73252,0.62942 0.91315,-1.72414 -0.57932,-0.37289 c 2.04761,1.36639 4.495,1.05969 6.47093,-0.19637 l -0.0894,0.40514 4.4514,1.47588 0.003,-0.008 1.41852,1.2392 c 1.61879,1.41435 7.8893,2.13602 10.82414,-1.97198 0.1879,-0.26301 1.22805,-2.20261 1.33539,-2.53508 1.04114,-3.22472 -2.45205,-7.72204 -5.793,-9.85641 l -2.73575,-1.89497 -1.5043,2.26963 -3.60081,-1.43816 5.80843,-1.18132 0.91256,-1.72381 z m 2.54402,16.05586 c 0,0 0.60251,1.33488 0.16123,1.68827 -0.7414,0.59371 -1.60248,-0.15192 -1.60248,-0.15192 z"
         sodipodi:nodetypes="cccccccccccccccccccscccccccccccccccccccccccccccssccccccccscc" />
      <path
         id="path2780-6-7"
         style="fill:#0f3768;fill-opacity:1;stroke:none;stroke-width:0.264583px;stroke-linecap:butt;stroke-linejoin:miter;stroke-opacity:1"
         d="m 143.44419,103.98162 -6.23044,2.21895 -0.91331,1.72448 0.19791,1.09657 -0.57257,3.72742 0.94309,0.46095 -0.0584,0.2651 c -0.0189,-0.0183 -0.0375,-0.0368 -0.0568,-0.0548 -1.89179,-1.74893 -4.56154,-1.94372 -6.77685,-0.90693 l 0.99374,-6.24561 -5.45389,-2.15212 -0.91317,1.72424 0.0331,2.6231 -1.25729,-2.65049 -6.32909,-2.02822 -0.91285,1.72437 0.59067,3.72432 1.03921,0.15193 0.14418,1.91616 c -2.92215,-1.54853 -6.58178,-0.28845 -8.33851,2.59312 -0.0765,0.1255 -0.14853,0.25176 -0.21705,0.37827 l -3.12952,-7.10706 -5.34179,1.54823 -0.11266,0.6134 -3.090784,-0.55276 -0.913103,1.72426 1.485699,14.611 5.962948,-0.83665 0.91302,-1.72445 1.01864,2.02469 0.91315,-1.72446 0.47591,2.52338 6.4487,-0.58394 0.91321,-1.72447 -1.96069,-0.6542 c 2.09762,0.35127 4.1732,-0.62922 5.63842,-2.25877 l 0.185,2.46083 4.2323,-0.0982 0.31213,1.54668 4.73252,0.62942 0.91315,-1.72414 -0.57932,-0.37289 c 2.04761,1.36639 4.495,1.05969 6.47093,-0.19637 l -0.0894,0.40514 4.4514,1.47588 0.003,-0.008 1.41852,1.2392 c 1.61879,1.41435 7.8893,2.13602 10.82414,-1.97198 0.1879,-0.26301 1.22805,-2.20261 1.33539,-2.53508 1.04114,-3.22472 -2.45205,-7.72204 -5.793,-9.85641 l -2.73575,-1.89497 -1.5043,2.26963 -3.60081,-1.43816 5.80843,-1.18132 0.91256,-1.72381 z m 2.54402,16.05586 c 0,0 0.60251,1.33488 0.16123,1.68827 -0.7414,0.59371 -1.60248,-0.15192 -1.60248,-0.15192 z"
         sodipodi:nodetypes="cccccccccccccccccccscccccccccccccccccccccccccccssccccccccscc" />
      <path
         style="fill:#366eab;fill-opacity:1;stroke:none;stroke-width:0.264583px;stroke-linecap:butt;stroke-linejoin:miter;stroke-opacity:1"
         d="m 99.166636,123.38496 -1.48552,-14.61072 4.003824,-1.17158 0.11254,-0.61355 5.34198,-1.54814 7.75983,17.62263 -6.44903,0.58401 -1.0645,-2.53993 -0.32429,1.74095 -2.13874,-1.97427 0.20695,1.67404 z"
         id="path2780-6" />
      <path
         style="fill:#ffd42a;fill-opacity:1;stroke:none;stroke-width:0.264583px;stroke-linecap:butt;stroke-linejoin:miter;stroke-opacity:1"
         d="m 100.23044,121.82016 -1.022503,-12.07203 3.143583,-1.04362 2.12796,4.08165 -0.42471,-5.05242 2.27676,-0.95369 6.73121,15.20287 -3.84175,0.42431 -2.33487,-6.00227 -0.37874,3.52464 -3.16405,-3.5316 0.64708,5.01573 z"
         id="path2782-7" />
      <path
         id="path2782-7-1"
         style="opacity:0.25;fill:#000000;fill-opacity:1;stroke:none;stroke-width:0.999999px;stroke-linecap:butt;stroke-linejoin:miter;stroke-opacity:1"
         transform="scale(0.26458333)"
         d="m 386.83984,410.85156 -11.88086,3.94532 0.2754,3.24218 11.05078,-4.57031 8.8789,15.80859 -0.28125,-2.99804 z m 15.04297,-7.27344 -8.60547,3.60547 0.1836,2.17969 6.89453,-2.54492 12.76172,28.07617 c -2.45926,8.84048 0.34427,17.47492 9.16406,22.47461 0.45714,0.25915 0.91645,0.49686 1.37695,0.7168 l 1.45313,3.19531 2.21289,-0.24414 z" />
      <path
         style="fill:#366eab;fill-opacity:1;stroke:none;stroke-width:0.264583px;stroke-linecap:butt;stroke-linejoin:miter;stroke-opacity:1"
         d="m 118.68018,107.66045 -1.03883,-0.15161 -0.59113,-3.72458 7.24217,0.30412 1.25708,2.65011 -0.0328,-2.62286 6.36684,0.42801 -2.93139,18.42158 -4.73261,-0.62972 -0.31196,-1.54653 -4.23252,0.0981 z"
         id="path3681-2" />
      <path
         style="fill:#ffd42a;fill-opacity:1;stroke:none;stroke-width:0.264583px;stroke-linecap:butt;stroke-linejoin:miter;stroke-opacity:1"
         d="m 118.28807,104.88758 0.12006,1.65105 1.13338,-0.0909 1.16819,13.303 2.78069,-0.39166 -0.13163,-7.14486 1.87893,9.20911 2.59549,0.25704 2.3966,-16.11655 -3.66603,-0.24776 -0.56701,6.89496 -2.64074,-7.05802 z"
         id="path3683-9"
         sodipodi:nodetypes="ccccccccccccc" />
      <path
         id="path3683-9-3"
         style="opacity:0.25;fill:#000000;fill-opacity:1;stroke:none;stroke-width:0.999999px;stroke-linecap:butt;stroke-linejoin:miter;stroke-opacity:1"
         d="m 447.07227,396.42578 0.15039,2.06445 15.58789,0.81446 13.48047,31.10547 -0.082,-6.30469 -9.98242,-26.67774 z m 31.27929,1.61914 -0.17187,2.0957 10.61133,0.7168 -3.75,25.2207 c -0.58585,0.55998 -1.15109,1.14881 -1.68946,1.76954 -7.35958,8.48538 -8.7994,18.87802 -2.5625,26.80859 l -0.73242,4.93164 3.0918,0.30664 0.55078,-3.70703 h 3.27734 v -22.03516 l 5.23047,-35.17187 z m -12.11328,26.07227 -3.41797,1.87695 0.47266,25.61133 3.44141,-0.48438 z"
         transform="scale(0.26458333)" />
      <path
         style="fill:#366eab;fill-opacity:1;stroke:none;stroke-width:0.264583px;stroke-linecap:butt;stroke-linejoin:miter;stroke-opacity:1"
         d="m 137.782,111.4859 -0.94317,-0.46108 0.57242,-3.72751 7.02992,2.80752 -4.32228,12.4481 -4.45146,-1.47637 z"
         id="path3681-2-0"
         sodipodi:nodetypes="ccccccc" />
      <path
         style="fill:#ffd42a;fill-opacity:1;stroke:none;stroke-width:0.264583px;stroke-linecap:butt;stroke-linejoin:miter;stroke-opacity:1"
         d="m 138.25384,108.72547 -0.38896,1.60906 1.10714,0.25893 -2.33355,9.70649 3.0485,0.91538 3.31269,-10.6922 z"
         id="path3683-9-9"
         sodipodi:nodetypes="ccccccc" />
      <path
         style="fill:#366eab;fill-opacity:1;stroke:none;stroke-width:0.264583px;stroke-linecap:butt;stroke-linejoin:miter;stroke-opacity:1"
         d="m 137.21375,106.20057 1.04009,2.5249 7.62007,-1.54939 -1.51645,-4.919 z"
         id="path4834-3" />
      <path
         style="fill:#ffd42a;fill-opacity:1;stroke:none;stroke-width:0.264583px;stroke-linecap:butt;stroke-linejoin:miter;stroke-opacity:1"
         d="m 139.23037,106.55582 0.26454,0.8262 5.14645,-0.83634 -0.97479,-2.59628 z"
         id="path4836-6" />
      <path
         id="path4836-6-3"
         style="opacity:0.25;fill:#000000;fill-opacity:1;stroke:none;stroke-width:0.999999px;stroke-linecap:butt;stroke-linejoin:miter;stroke-opacity:1"
         transform="scale(0.26458333)"
         d="m 542.99219,392.87891 -16.76758,9.85156 0.1582,0.49219 14.3086,-8.40821 3.13086,8.3418 2.85351,-0.46484 z m -20.45703,18.05273 -0.96094,3.96875 14.35156,5.43555 -0.625,2.01758 -5.88867,8.88476 2.5332,1.94922 -2.42578,7.82812 -12.19531,13.93165 7.20898,2.16406 3.41797,1.02539 12.51953,-40.41211 -1.67968,-0.63672 z" />
      <path
         id="path4978-0"
         style="fill:#366eab;fill-opacity:1;stroke:none;stroke-width:0.264583px;stroke-linecap:butt;stroke-linejoin:miter;stroke-opacity:1"
         d="m 145.17061,107.5257 -3.90157,5.88646 1.36994,1.0542 -5.09788,5.82393 3.99901,3.49396 c 1.61879,1.41435 7.88932,2.13603 10.82415,-1.97197 2.01045,-2.81411 -0.77241,-10.0374 -4.45781,-12.39182 z m 1.73097,10.78769 c 0,0 0.60251,1.33487 0.16124,1.68826 -0.7414,0.59371 -1.60249,-0.15192 -1.60249,-0.15192 z"
         sodipodi:nodetypes="ccccsscccscc" />
      <path
         id="path4982-2"
         style="fill:#ffd42a;fill-opacity:1;stroke:none;stroke-width:0.264583px;stroke-linecap:butt;stroke-linejoin:miter;stroke-opacity:1"
         d="m 145.96539,109.26203 -2.72852,3.83335 1.45366,0.91675 -5.14025,6.3655 c 0,0 0.63107,0.91725 1.81,1.74523 2.76928,1.9449 7.74356,2.4849 9.98699,-0.78497 1.47525,-2.15024 -0.34627,-6.85315 -2.49804,-9.18445 -1.22629,-1.32859 -2.88384,-2.89141 -2.88384,-2.89141 z m 0.98322,7.33053 c 0.0219,-0.0328 2.14013,2.37958 0.92191,3.95841 -1.21825,1.57882 -4.51446,-0.11937 -4.51446,-0.11937 z"
         sodipodi:nodetypes="ccccsssccscc" />
      <path
         style="fill:#366eab;fill-opacity:1;stroke:none;stroke-width:0.264583px;stroke-linecap:butt;stroke-linejoin:miter;stroke-opacity:1"
         d="m 128.60038,112.51946 c -2.25121,2.59558 -2.40945,5.86574 0.24476,8.02392 2.70105,2.19627 6.26082,1.19557 8.4813,-1.17622 1.74931,-1.86852 2.3915,-5.77489 0.34028,-7.67121 -2.62135,-2.42339 -6.73614,-1.86317 -9.06634,0.82351 z"
         id="path2979-3-1"
         sodipodi:nodetypes="sssss" />
      <path
         style="fill:#ffd42a;fill-opacity:1;stroke:none;stroke-width:0.264583px;stroke-linecap:butt;stroke-linejoin:miter;stroke-opacity:1"
         d="m 136.6866,112.0474 c -1.63767,-1.5492 -5.18627,-1.00719 -6.73334,0.63249 -1.72016,1.82314 -2.49308,4.77308 -0.45263,6.88827 1.61849,1.67778 5.36614,0.99827 6.95796,-0.70482 1.55226,-1.66077 2.38952,-4.77122 0.22801,-6.81594 z"
         id="path3147-5-2"
         sodipodi:nodetypes="sssss" />
      <path
         style="fill:#366eab;fill-opacity:1;stroke:none;stroke-width:0.264583px;stroke-linecap:butt;stroke-linejoin:miter;stroke-opacity:1"
         d="m 110.486,112.16988 c -1.78849,2.93364 -1.40101,6.18462 1.57499,7.87163 3.02851,1.71679 6.37245,0.13836 8.16783,-2.5695 1.41442,-2.13328 1.39842,-6.09205 -0.93945,-7.62107 -2.98768,-1.954 -6.95212,-0.71767 -8.80337,2.31894 z"
         id="path2979-3"
         sodipodi:nodetypes="sssss" />
      <path
         style="fill:#ffd42a;fill-opacity:1;stroke:none;stroke-width:0.264583px;stroke-linecap:butt;stroke-linejoin:miter;stroke-opacity:1"
         d="m 118.38129,110.3604 c -1.87238,-1.25546 -5.28153,-0.13119 -6.53456,1.74282 -1.39322,2.08368 -1.66509,5.12106 0.69854,6.86769 1.87484,1.38544 5.45742,0.0925 6.74404,-1.85147 1.25464,-1.89567 1.56327,-5.10201 -0.90802,-6.75904 z"
         id="path3147-5"
         sodipodi:nodetypes="sssss" />
      <path
         id="path3353-6-2"
         style="opacity:0.25;fill:#000000;fill-opacity:1;stroke:none;stroke-width:0.264583px;stroke-linecap:butt;stroke-linejoin:miter;stroke-opacity:1"
         d="m 114.23128,111.81707 c -0.46926,0.32071 -0.43166,0.61253 -0.78334,1.10842 -0.51161,0.72137 0.21373,2.18702 1.04179,2.65151 0.88683,0.49747 2.44346,0.31976 3.00395,-0.52865 0.16314,-0.24694 0.40158,-0.6512 0.52987,-1.02027 l -0.64255,-0.39276 c -0.0291,0.10289 -0.0673,0.19895 -0.11469,0.28494 -0.35272,0.64007 -1.3322,0.77425 -1.89033,0.39894 -0.52112,-0.35044 -0.97773,-1.45616 -0.65577,-2.0004 0.0975,-0.16473 -0.64216,-0.37665 -0.48893,-0.50173 z m 2.17247,-1.98812 c -1.72924,0.01 -3.67579,0.95662 -4.55683,2.27428 -0.19142,0.28629 -0.36179,0.59045 -0.50695,0.90692 0.0546,-0.091 0.1113,-0.18089 0.17002,-0.26871 1.25303,-1.87401 4.6621,-2.99799 6.53448,-1.74253 2.15364,1.44404 2.19604,4.06468 1.34101,5.96914 1.17248,-1.91094 1.40263,-4.99413 -1.00408,-6.60786 -0.55586,-0.37272 -1.24753,-0.53535 -1.97765,-0.53124 z" />
      <path
         id="path3353-6-2-9"
         style="opacity:0.25;fill:#000000;fill-opacity:1;stroke:none;stroke-width:0.264583px;stroke-linecap:butt;stroke-linejoin:miter;stroke-opacity:1"
         d="m 132.07328,113.08361 c -0.46926,0.32071 -0.43166,0.61253 -0.78334,1.10842 -0.51161,0.72137 0.21373,2.18702 1.04179,2.65151 0.88683,0.49747 2.44346,0.31976 3.00395,-0.52865 0.16314,-0.24694 0.44371,-0.72571 0.572,-1.09478 l -0.6584,-0.18064 c -0.0291,0.10289 -0.0936,0.0613 -0.14097,0.14733 -0.35272,0.64007 -1.3322,0.77425 -1.89033,0.39894 -0.52112,-0.35044 -0.97773,-1.45616 -0.65577,-2.0004 0.0975,-0.16473 -0.64216,-0.37665 -0.48893,-0.50173 z m 1.93353,-1.95551 c -1.51085,-0.008 -3.13493,0.57828 -4.0535,1.55184 -0.31007,0.32863 -0.58924,0.69381 -0.82683,1.08417 0.14886,-0.19885 0.30861,-0.38893 0.47749,-0.56792 1.54707,-1.63968 5.09577,-2.18172 6.73344,-0.63252 1.79921,1.702 1.52078,4.14235 0.48163,5.87044 1.30727,-1.72677 1.85481,-4.50695 -0.13229,-6.38669 -0.66531,-0.62936 -1.6462,-0.91361 -2.67994,-0.91932 z" />
      <path
         id="path3353-6"
         style="fill:#366eab;fill-opacity:1;stroke:none;stroke-width:0.264583px;stroke-linecap:butt;stroke-linejoin:miter;stroke-opacity:1"
         d="m 115.51512,111.12371 c -0.66742,0.16505 -1.30351,0.54901 -1.65519,1.0449 -0.51161,0.72137 0.21373,2.18702 1.04179,2.65151 0.88683,0.49747 2.44347,0.31976 3.00395,-0.52865 0.41717,-0.63147 0.31851,-1.67297 -0.11368,-2.39107 0.0944,0.44624 0.0697,0.93011 -0.11369,1.26298 -0.35272,0.64007 -1.3322,0.77425 -1.89033,0.39894 -0.52112,-0.35044 -0.97773,-1.45616 -0.65577,-2.0004 0.0975,-0.16473 0.22969,-0.31313 0.38292,-0.43821 z" />
      <path
         id="path3353-6-7"
         style="fill:#366eab;fill-opacity:1;stroke:none;stroke-width:0.264583px;stroke-linecap:butt;stroke-linejoin:miter;stroke-opacity:1"
         d="m 133.73343,112.32371 c -0.68557,0.0518 -1.37663,0.32473 -1.80584,0.75527 -0.62439,0.6263 -0.15274,2.19212 0.5866,2.78778 0.79181,0.63795 2.35634,0.72143 3.05003,-0.022 0.51633,-0.55335 0.59214,-1.59677 0.28532,-2.37671 0.0189,0.45572 -0.0859,0.92876 -0.32203,1.22652 -0.4542,0.57254 -1.44235,0.54206 -1.93034,0.0792 -0.45563,-0.43218 -0.72211,-1.59841 -0.31417,-2.08157 0.12352,-0.14623 0.27854,-0.27059 0.45043,-0.36847 z" />
      <path
         id="path11528"
         style="opacity:0.25;fill:#000000;fill-opacity:1;stroke:none;stroke-width:0.0700042px;stroke-linecap:butt;stroke-linejoin:miter;stroke-opacity:1"
         d="m 143.35606,120.4316 -0.62632,0.78342 c 0,0 3.29832,1.69982 4.51445,0.11937 l 0.46509,-0.6041 c -1.3237,1.26222 -4.35322,-0.29869 -4.35322,-0.29869 z m 2.60919,-11.16954 -0.60875,0.85525 c 0.0924,0.0873 1.66058,1.57057 2.85099,2.86029 2.09957,2.27475 3.8839,6.80713 2.59881,9.02322 0.19373,-0.20108 0.37518,-0.42125 0.54105,-0.66301 1.47525,-2.15024 -0.34627,-6.85315 -2.49804,-9.18445 -1.22629,-1.32859 -2.88406,-2.8913 -2.88406,-2.8913 z m -1.93218,5.564 -4.48293,5.5516 c 0,0 0.008,0.0118 0.0114,0.016 l 4.48759,-5.55728 z" />
    </g>
    <g
       id="g6048"
       transform="translate(-11.731783,-0.490567)">
      <path
         id="path2148"
         style="opacity:0.25;fill:#000000;stroke:#000000;stroke-width:0.264583px;stroke-linecap:butt;stroke-linejoin:miter;stroke-opacity:1"
         d="m 128.28572,31.055132 -1.25208,1.094306 -1.16673,10.89491 0.49803,0.410921 -1.74203,2.055553 3.76251,8.945738 10.90382,-1.634128 1.6048,-1.752264 -5.89729,-11.259957 z m 4.56374,-6.396055 1.32786,-0.112258 0.6197,1.968185 3.89767,-3.067237 -3.70045,-2.087251 -2.33788,1.383872 z m -14.29663,-6.803147 -1.32736,1.469655 4.01221,8.861326 9.1554,0.233514 1.1772,-1.455896 -13.01745,-9.108599" />
      <path
         id="path1857"
         style="fill:#0f3768;fill-opacity:1;stroke:none;stroke-width:0.264583px;stroke-linecap:butt;stroke-linejoin:miter;stroke-opacity:1"
         d="m 127.67097,42.244324 -1.30603,1.210945 -0.0934,1.163471 3.81389,8.229608 10.80861,-1.77818 1.90969,-1.686965 z m 3.02245,-13.459859 -2.4077,2.270667 -0.71586,10.341298 11.10587,1.331492 0.56642,-1.93589 z m 2.77193,-5.950231 2.06241,-0.03894 0.91915,2.476481 2.43504,-2.29287 -1.31984,-2.887567 -4.49741,0.410251 z m -13.19246,-6.6406 -1.72006,1.662296 4.25859,9.08323 8.75886,0.02537 1.60997,-1.620582 z" />
      <path
         id="path963"
         style="fill:#366eab;fill-opacity:1;stroke:none;stroke-width:0.265;stroke-linecap:butt;stroke-linejoin:miter;stroke-miterlimit:4;stroke-dasharray:none;stroke-opacity:1"
         d="m 127.67097,42.244324 11.96286,-0.648284 3.16988,7.787163 -11.12584,2.112426 z m 5.50928,-16.900361 -8.90168,-0.25087 -4.00568,-8.899459 8.16324,-4.517181 17.91814,3.830337 1.04703,10.718784 -7.90072,6.509244 -0.25843,8.057214 -10.18985,-0.840325 1.64112,-11.167242 6.9848,-5.311998 -0.44386,-2.255369 -3.68235,-0.167329 z" />
      <path
         id="path965"
         style="fill:#ffd42a;stroke:none;stroke-width:0.264583px;stroke-linecap:butt;stroke-linejoin:miter;stroke-opacity:1"
         d="m 129.73126,43.528191 2.78115,6.213628 8.14033,-1.436867 -2.21501,-4.91889 z m 2.21166,-19.656441 -6.38585,-0.290906 -3.63865,-6.667052 6.58285,-3.85052 16.14411,3.357432 0.88682,9.595504 -7.59404,5.862461 -0.12936,7.213687 -7.094,-0.493252 1.1141,-8.887184 7.99749,-5.601638 -1.47997,-4.420924 -6.39779,-0.137132 z" />
      <path
         id="path965-3"
         style="opacity:0.25;fill:#000000;stroke:none;stroke-width:0.999999px;stroke-linecap:butt;stroke-linejoin:miter;stroke-opacity:1"
         d="m 485.67383,49.373047 -6.67969,3.90625 63.80274,13.734375 3.68945,33.853518 0.0996,0.13086 3.45703,-2.669925 L 546.6914,62.0625 Z m 13.02929,24.525391 -4.69921,4.5625 0.25195,11.5625 4.42578,0.201171 z m 22.63868,46.587892 -4.70118,3.14453 -0.48632,23.79297 4.69726,0.32617 z m 1.88672,43.49219 -32.90625,0.5371 2.04882,4.57813 25.97461,-0.80664 7.77735,15.25 5.47851,-0.9668 z"
         transform="scale(0.26458333)" />
    </g>
    <g
       id="g178"
       transform="matrix(0.26434082,0,0,0.26434082,41.774877,21.06271)"
       style="fill:#000000">
      <path
         fill="#68ae28"
         d="M 146.15,46.8 29.7,136.95 q -1.8,0.2 -5.35,-0.9 Q 19.9,134.65 15.9,131.9 4.5,124.1 2.1,109.5 -0.25,95.5 6.4,79.45 8.6,74.15 11.8,68.5 l 3.9,-6.55 q 4.75,-8.45 7.85,-16.7 5.15,-13.8 2.8,-20.4 l 1.6,0.2 q 1.8,0.35 2.9,1.3 Q 30.7,24.75 30,22.6 28.55,18.2 25.85,15.2 l 5.4,-0.75 q 6.85,0.05 13.9,3.9 L 44.8,15.6 q -0.2,-2.8 0.55,-3.1 1.15,-0.45 3.3,2.2 0.05,-2.2 0.95,-5 1.75,-5.5 5.9,-8.3 l 2.75,5.05 q 3.85,5.45 9.4,7.55 4.85,1.9 22,2.9 16.6,1 23.4,4.1 l 4.8,0.4 q 5.85,0.75 10.8,2.75 15.95,6.45 17.5,22.65"
         id="path2"
         style="fill:#000000" />
      <path
         fill="#56931f"
         d="M 5.55,119.3 Q -5.75,98 10.95,70.35 2.5,92.7 16.65,106.1 q 6.15,5.8 15.5,8.5 9.15,2.6 19.4,1.7 l -23.3,21.05 Q 23.15,136.9 16.9,132.4 9.75,127.15 5.55,119.3"
         id="path4"
         style="fill:#000000" />
      <path
         fill="#7cbeb3"
         d="m 191.85,40.2 q 4.45,1.95 7.75,13.25 2.95,10.25 2,14.5 5.9,6.85 11.5,26.75 6.35,22.3 2.15,32.45 -1.35,3.25 -7.9,8.85 -6.8,5.9 -13.45,9.1 l 2.25,3.65 q 2.7,4.8 4.85,10.35 6.85,17.9 5.7,37.1 -0.35,6.1 -10.1,10 -9.55,3.75 -20.35,2.5 -3.65,-0.5 -9.65,-8.55 -6.85,-9.35 -8.15,-19.4 -9.15,5.3 -15.45,7.15 l -1.3,2.2 q -1.7,2.7 -4,5 -7.25,7.4 -17.15,8.25 -9.85,0.85 -15.3,-1.55 -1.7,-0.75 -2.8,-1.75 l -0.7,-0.85 -39.95,1.35 -4.1,3.6 Q 52.2,207.8 45,208 q -9.85,0.3 -15.5,-1.8 -7.1,-2.7 -10.1,-9.85 -4.35,-10.3 -4.6,-23.6 -0.35,-17.3 7.75,-28.3 7.8,-10.6 20.35,-21.6 3.5,-3.05 19.05,-15.5 7.95,-6.3 14.15,-12.2 6.3,-6 7.65,-8.6 1.45,-9.95 3.8,-20.2 4.75,-20.5 9.2,-21.9 4.45,-1.35 13.1,2.85 4.3,2.15 7.7,4.5 l 3.4,-1.2 q 4.5,-1.35 9.85,-2.3 17.1,-2.95 36.3,-0.35 2.9,-3.1 12.8,-6 9.55,-2.8 11.95,-1.75"
         id="path6"
         style="fill:#000000" />
      <path
         fill="#68a198"
         d="m 200.9,60.1 1,7.85 -5.15,-7.65 q 0.8,-3.35 0.7,-9.05 l -0.3,-5 q 2.3,4.95 3.75,13.85"
         id="path8"
         style="fill:#000000" />
      <path
         fill="#68a198"
         d="m 86.4,68.95 q 4.05,-18.6 7.95,-21.5 -0.95,10.8 -0.65,21.35 0.2,6.2 1.3,18.9 0.65,7.55 -1.55,13.4 -1.95,5.1 -5.1,6.95 -3.1,1.8 -5.1,-0.8 -2.15,-2.85 -1.45,-9.8 1.4,-13.85 4.6,-28.5"
         id="path10"
         style="fill:#000000" />
      <path
         fill="#68a198"
         d="m 176.65,196.05 q 3.85,7.2 9.2,9 l -1.9,3.8 q -7.55,1.5 -13.35,-3.95 -6.95,-6.65 -12.3,-24.15 -8.65,5.25 -19.2,7.85 -10.4,2.6 -25,3.15 -2.3,0.75 -3.35,3.2 -1.05,2.35 -0.05,4.25 l -2.8,3.3 -6,-3.65 q 0.25,-1.7 2.8,-10.15 2.5,-8.1 3.15,-14.05 1.9,-17.8 -9.9,-32.2 10.5,10.55 36.8,13.25 28.1,2.85 47.75,-5.1 -6.3,4.05 -9,12.6 -2.4,7.7 -1.45,17.05 0.95,9 4.6,15.8"
         id="path12"
         style="fill:#000000" />
      <path
         fill="#68a198"
         d="m 14.3,167.35 q 2.15,17.55 19.2,22.55 6.55,1.9 13.8,1.4 6.6,-0.45 10.85,-2.6 L 61.8,201 q -3.9,3.8 -10.5,5.95 -13.2,4.3 -26.55,-3.75 -6.45,-3.9 -9.25,-19.8 -0.9,-5.35 -1.2,-10.85 -0.25,-4.6 0,-5.2"
         id="path14-7"
         style="fill:#000000" />
      <path
         fill="#ffffff"
         d="m 121.35,85.85 q 1.95,-0.35 4.15,0.65 -7.55,5.8 -7.9,17.8 -0.35,10.95 5,20.55 -10.5,-1.15 -14.8,-4.8 -1.25,-1.1 -1.05,-6.15 0.2,-5.25 1.85,-11 4.3,-15.3 12.75,-17.05"
         id="path16"
         style="fill:#000000" />
      <path
         fill="#d60040"
         d="m 138.65,104.9 q 2.35,6.3 2.9,11.35 0.6,5.4 -1.2,7.2 -1.2,1.2 -6.45,1.65 -5.35,0.4 -11.3,-0.25 -5.35,-9.6 -5,-20.55 0.35,-12 7.9,-17.8 7.45,3.45 13.15,18.4"
         id="path18"
         style="fill:#000000" />
      <path
         fill="#d60040"
         d="m 197.2,83.35 q 6.25,5.1 7.45,15.25 0.75,6.35 -0.6,17.85 -2.2,0.85 -4.25,1.15 -2.1,0.35 -3.15,0 -2.95,-0.95 -2.95,-15.1 -0.05,-14.45 3.5,-19.15"
         id="path20"
         style="fill:#000000" />
      <path
         fill="#ffffff"
         d="m 197.2,83.35 q 0.9,-1.25 1.9,-1.45 4.85,-1.05 9.4,11.85 4.45,12.8 1.75,18.3 -1.25,2.6 -6.2,4.4 1.35,-11.5 0.6,-17.85 -1.2,-10.15 -7.45,-15.25"
         id="path22"
         style="fill:#000000" />
      <path
         fill="#006359"
         d="m 167.85,78.25 q -1.45,0.55 -7.55,-3.05 -6.4,-3.7 -6.15,-6.05 0.35,-3.1 10.35,-8.55 10.15,-5.5 13.5,-4.05 2.15,0.9 -2.25,10.6 -4.45,9.75 -7.9,11.1"
         id="path24"
         style="fill:#000000" />
      <path
         fill="#006359"
         d="m 145.6,82.55 q -0.15,-0.65 1.5,-2.45 1.7,-1.85 3.05,-2.2 l 1.1,1.55 q 1.4,2.35 2.8,6.6 l -0.65,1.55 q -0.95,1.7 -2.35,2.35 l -2.4,-2.3 q -2.5,-2.75 -3.05,-5.1"
         id="path26"
         style="fill:#000000" />
      <path
         fill="#006359"
         d="m 184.25,93.45 q 1.55,8.85 0.25,9.9 -1.15,0.95 -7,-0.75 -5.9,-1.7 -6.7,-3.3 0.25,-3.7 3.8,-9.25 3.65,-5.55 5.9,-5.55 2.2,0 3.75,8.95"
         id="path28"
         style="fill:#000000" />
      <path
         fill="#006359"
         d="m 187.25,180.4 q -0.2,-2.85 3.5,-8.15 3.6,-5.2 5.2,-5 2.4,0.25 3.3,10.05 0.85,9.85 -1.55,10.65 -2.65,0.9 -6.35,-1 -4.25,-2.25 -4.1,-6.55"
         id="path30"
         style="fill:#000000" />
      <path
         fill="#006359"
         d="m 28.75,152.3 8.25,0.35 q 5.55,1.1 6.4,2.45 1.4,2.25 -1.85,9.5 -3.2,7.2 -5.4,7.4 -1.9,0.15 -7.7,-3.8 -5.85,-3.95 -5.8,-5.5 0.05,-2 1.95,-5.7 2.1,-4.15 4.15,-4.7"
         id="path32"
         style="fill:#000000" />
      <path
         fill="#006359"
         d="m 76.3,109.45 q 1.3,2.25 -4.2,12.5 -5.5,10.25 -8.45,10.9 -2.7,0.65 -8.8,-2.35 -5.75,-2.75 -7.65,-5.05 -0.6,-0.75 0.8,-4.4 l 1.5,-3.55 6.7,-5.3 q 6.8,-5.35 7.6,-5.55 l 6.25,0.55 q 5.5,0.95 6.25,2.25"
         id="path34"
         style="fill:#000000" />
      <path
         fill="#ffffff"
         d="m 127.05,91.55 q 1.6,0 2.8,3.15 1.2,3.35 1.15,8.35 -0.1,4.75 -1.3,7.5 -1.1,2.5 -2.7,2.5 -1.5,0 -2.6,-2.7 -1.2,-2.85 -1.3,-7.2 -0.2,-5.25 1.1,-8.55 1.15,-3.05 2.85,-3.05"
         id="path36"
         style="fill:#000000" />
      <path
         fill="#ffffff"
         d="m 194.85,92.65 1,-4.5 q 0.6,-0.8 1.15,-0.75 0.9,0.05 1.7,1.95 1.15,2.55 1.25,7.2 0.05,4.4 -0.8,6.85 -0.8,2.2 -2,2.2 -0.75,0 -1.5,-1.1 -0.8,-1.2 -1.1,-3.15 -0.6,-3.45 0.3,-8.7"
         id="path38"
         style="fill:#000000" />
      <path
         fill="#0d131a"
         d="m 173.55,50.25 q -13.7,-2.65 -27.75,-2.05 -15.1,0.6 -27.75,4.9 -0.45,0.15 -1.25,-1 -0.85,-1.15 -0.4,-1.35 14.35,-4.85 31.1,-5.2 14.7,-0.35 26.85,2.75 6.2,1.6 5.9,2.35 l -6.7,-0.4"
         id="path40"
         style="fill:#000000" />
      <path
         fill="#0d131a"
         d="m 200.55,64.2 q 10.15,14.7 14.8,34.1 4.05,16.9 2,26.15 -2.25,10.25 -22.4,21 -20,10.7 -38.65,11.85 -19.95,1.2 -37.55,-3.3 -17.6,-4.5 -22.7,-12.15 -1.65,-2.5 -1.05,-3.05 0.65,-0.55 2.95,1.95 6.75,7.4 24.05,11.3 16.45,3.7 34.35,2.6 18.7,-1.15 37.75,-11.75 18.3,-10.2 20.3,-19.3 2.1,-9.45 -1.75,-25.5 -4.3,-17.95 -13.75,-32.3 -3.9,-5.95 -3.05,-6.6 0.8,-0.65 4.7,5"
         id="path42"
         style="fill:#000000" />
      <path
         fill="#0d131a"
         d="m 84.7,87.1 q -3.3,6.2 -13.35,14.75 -6,5.05 -20.2,16 -12.95,10.3 -20,18.15 -9.7,10.8 -12.9,21.25 -3.85,12.55 -0.4,28.2 3.2,14.75 9.1,18.2 6.35,3.7 17.1,3.25 11.1,-0.45 15.35,-5.2 6.55,-7.35 5.1,-23.8 -1.5,-16.8 -10.2,-26.8 -3.4,-3.95 -2.9,-4.8 0.5,-0.85 4.25,3.15 10.95,11.75 12.2,28.75 1.15,16.15 -6.75,25 -4.75,5.35 -17.1,6 -11.95,0.65 -18.95,-3.45 -7.1,-4.15 -10.4,-19.6 -3.35,-15.9 0.65,-29.4 3.05,-10.2 12.05,-20.45 6.55,-7.5 18.95,-17.55 l 20.5,-16.6 Q 77.9,92.6 83.35,84.6 q 0.25,-0.35 0.9,0.85 0.7,1.25 0.45,1.65"
         id="path44"
         style="fill:#000000" />
      <path
         fill="#0d131a"
         d="m 96.95,42.95 q 3.1,-1 10.45,2 7.4,3.05 12.15,7.45 3.75,3.5 2.9,3.95 -0.8,0.5 -4.6,-2.45 -4.9,-3.7 -11.35,-6.25 -6.3,-2.55 -8.45,-1.8 -3.5,1.15 -8.1,17.75 -4.85,17.55 -6.3,36.8 -0.4,5.55 -1.4,5.1 -1.05,-0.45 -0.85,-5.25 0.65,-16.65 5,-34.85 4.95,-20.6 10.55,-22.45"
         id="path46"
         style="fill:#000000" />
      <path
         fill="#0d131a"
         d="m 165.5,47.25 q 4.35,-3.3 13.35,-6.3 10.15,-3.4 14.1,-1.6 3.9,1.75 7.1,11.75 2.95,9.3 3.3,18.7 0,0.45 -1.25,-0.95 -1.3,-1.4 -1.3,-1.9 -0.3,-7.6 -3.5,-16 -3.05,-8 -5.65,-9.2 -2.45,-1.1 -11.2,1.4 -8.85,2.5 -12.6,5.35 -0.35,0.3 -1.55,-0.3 -1.15,-0.65 -0.8,-0.95"
         id="path48"
         style="fill:#000000" />
      <path
         fill="#0d131a"
         d="m 167.35,76.85 q 2.45,-0.05 6.85,-9.35 4.35,-9.15 3.25,-9.7 -2.45,-1.25 -12.15,3.65 -9.75,4.9 -9.8,7.55 -0.05,1.65 4.3,4.65 4.45,3 7.55,3.2 m -4,-16.75 q 10.65,-5.75 15.2,-4.9 1.55,0.3 0.9,4.1 -0.6,3.5 -2.7,8.2 -5.25,11.7 -9.4,11.5 -3.3,-0.2 -8.8,-3.8 -5.75,-3.75 -5.75,-6.35 0,-3.05 10.55,-8.75"
         id="path50"
         style="fill:#000000" />
      <path
         fill="#0d131a"
         d="m 153.05,86.35 q 0.15,-0.4 -1.1,-3.7 -1.25,-3.35 -1.8,-3.4 -0.45,-0.05 -2,1.35 -1.55,1.4 -1.55,2.1 0.05,0.65 2.1,3.4 2.05,2.65 2.4,2.65 0.3,0 1.05,-1 l 0.9,-1.4 m 0.1,-5.25 q 1.55,3.7 1.6,5.05 0.05,1.1 -1.6,3 -1.7,1.95 -2.55,1.55 -1,-0.45 -3.45,-3.7 -2.65,-3.45 -2.45,-4.75 0.2,-1.35 2.35,-3.4 2.15,-1.95 3.25,-1.9 1.15,0.1 2.85,4.15"
         id="path52"
         style="fill:#000000" />
      <path
         fill="#0d131a"
         d="m 180.15,85.95 q -1.55,-0.1 -5.1,5.85 -3.45,5.9 -3.05,7.05 0.4,1.05 5.65,2.55 5.3,1.5 6.05,0.8 1.15,-1.1 -0.45,-8.65 -1.6,-7.5 -3.1,-7.6 m -6.8,4.2 q 4.35,-7.5 6.85,-7.25 3.15,0.3 5.05,10.4 1.85,10.05 -0.3,11.1 -1.85,0.95 -8.15,-1.15 -6.2,-2.05 -6.8,-3.5 -0.95,-2.15 3.35,-9.6"
         id="path54"
         style="fill:#000000" />
      <path
         fill="#0d131a"
         d="m 109.8,95.9 q 5.85,-11.85 12.55,-11.1 9.45,1.1 16.25,15.95 2.85,6.3 3.75,12.45 0.95,6.4 -0.65,10.2 -0.85,2.1 -6.4,2.8 -5.1,0.6 -11.85,-0.1 -6.8,-0.7 -11.6,-2.45 -5.3,-1.85 -5.75,-4.25 -2.25,-11.4 3.7,-23.5 m 23.5,0.7 q -5.25,-8.9 -11.2,-9.55 -2.35,-0.25 -5.1,2.6 -4.15,4.3 -6.7,12.4 -2.7,8.8 -1.6,16.85 0.4,3.1 14.95,4.7 14.55,1.65 15.8,-1.25 1.3,-3.15 -0.45,-11 -1.85,-8.2 -5.7,-14.75"
         id="path56"
         style="fill:#000000" />
      <path
         fill="#0d131a"
         d="m 206.95,92.6 q -3.75,-9.3 -7.55,-9.3 -3.35,0 -4.1,15.85 -0.75,15.75 1.9,17.3 1.75,1 6.6,-1.1 4.85,-2.1 5.25,-3.95 1.95,-8.85 -2.1,-18.8 m -14,5.7 Q 193.8,81 199.4,81 q 4.85,0 9.4,10.35 4.75,10.9 2.65,20.35 -0.75,3.2 -7.4,5.7 -6.45,2.45 -8.2,0.95 -1.65,-1.35 -2.45,-7.4 -0.8,-5.8 -0.45,-12.65"
         id="path58"
         style="fill:#000000" />
      <path
         fill="#0d131a"
         d="m 63.25,105.7 8.75,0.55 q 5.1,0.9 5.85,2.35 1.35,2.75 -4.9,14.1 -6.25,11.45 -9.55,11.45 -3.15,0 -10.3,-3.15 -7.55,-3.3 -7.55,-5.4 0,-1.2 1.1,-3.6 l 2.4,-4.7 q 0.25,-0.4 1.35,-0.5 1.15,-0.05 0.9,0.35 -1.35,2.5 -2.15,4.85 -0.7,2.05 -0.7,2.95 0.2,1.35 6.45,4.15 6.1,2.75 8.45,2.8 2.2,-0.7 7.2,-10.2 5,-9.5 4.3,-11.6 -0.4,-0.85 -4.3,-1.6 l -7.75,-0.55 q -0.5,0.05 -0.25,-1.1 0.25,-1.1 0.7,-1.15"
         id="path60"
         style="fill:#000000" />
      <path
         fill="#0d131a"
         d="m 29.2,153.2 q -1.55,0.75 -3.55,4.15 -2,3.35 -1.85,4.65 0.2,1.35 5.3,4.95 5.1,3.6 6.6,3.4 1.5,-0.2 4.65,-6.9 3.15,-6.7 2.35,-7.55 -0.9,-0.9 -6.55,-2.1 -5.75,-1.2 -6.95,-0.6 m -5.55,2.85 q 2.35,-3.9 4.45,-5 l 8.65,0.4 q 7.2,1.35 8.4,3.25 1.1,1.75 -2.5,9.8 -3.6,8 -5.9,8.85 -1.75,0.7 -8.25,-3.85 -6.6,-4.6 -6.95,-7.2 -0.25,-2.25 2.1,-6.25"
         id="path62"
         style="fill:#000000" />
      <path
         fill="#0d131a"
         d="m 188.35,180.3 v 0.05 q 0.1,4.15 4.05,6.05 3.55,1.7 4.8,0.55 1.3,-1.2 0.9,-9.1 -0.4,-8.05 -2.35,-8.95 -1.05,-0.45 -4.25,4.5 -3.15,4.95 -3.15,6.9 m 1.45,-8.6 q 3.85,-6.15 5.95,-6.1 3.4,0.05 4.25,10.85 0.85,10.6 -1.4,12.25 -1.85,1.4 -6.75,-0.5 -5.6,-2.2 -5.75,-7.35 -0.05,-3.1 3.7,-9.15"
         id="path64"
         style="fill:#000000" />
      <path
         fill="#0d131a"
         d="m 211.75,122.1 q -0.05,1.95 -0.55,3.2 l -1,1.65 q -2.45,2.9 -11.7,7.3 -9.55,4.55 -16.55,5.95 -12.75,2.6 -39.15,0.45 -26.4,-2.1 -33.35,-6.3 -1.15,-0.75 -2.1,-2.45 -0.85,-1.45 -1.25,-3.2 -0.75,-3.15 -0.1,-3.55 0.65,-0.4 2.05,2.9 0.85,1.95 1.8,3 l 2,1.5 q 5.6,3.05 29.95,5.4 26.35,2.55 39.7,-0.15 6,-1.25 14.25,-4.85 7.65,-3.35 11.45,-6.1 1.4,-1.05 2.05,-2.15 0.7,-1.15 0.9,-2.8 0.35,-3 1,-2.8 0.65,0.25 0.6,3"
         id="path66"
         style="fill:#000000" />
      <path
         fill="#0d131a"
         d="m 135.95,81.05 q 1.75,1.6 3.4,3.9 1.75,2.4 2.5,4.35 1.1,2.8 0.1,3.15 -1.05,0.3 -2.35,-2.2 -2.15,-4.25 -5.25,-7.7 -2.9,-3.35 -2.3,-3.9 0.65,-0.55 3.9,2.4"
         id="path68"
         style="fill:#000000" />
      <path
         fill="#0d131a"
         d="m 192.3,81.4 q -0.95,2.75 -1.2,5.9 -0.2,2.75 -1.25,2.7 -1.05,0 -0.9,-2.7 0.15,-3.3 1.7,-6.5 1.4,-2.85 2.05,-2.7 0.6,0.2 -0.4,3.3"
         id="path70"
         style="fill:#000000" />
      <path
         fill="#0d131a"
         d="m 170.35,133.8 q -1.1,-0.55 -1.75,-1.4 -0.65,-0.8 -0.45,-1.15 l 1.55,0.05 q 1.45,0.3 2.15,0.95 0.9,0.9 0.35,1.55 -0.55,0.65 -1.85,0"
         id="path72"
         style="fill:#000000" />
      <path
         fill="#0d131a"
         d="m 187.4,131.3 q -1.05,1.3 -1.9,0.9 -0.85,-0.4 -0.1,-1.65 0.55,-0.9 1.75,-1.6 1.1,-0.7 1.4,-0.45 0.2,0.2 -0.1,1.05 l -1.05,1.75"
         id="path74"
         style="fill:#000000" />
      <path
         fill="#0d131a"
         d="m 127.3,86.75 q 0.45,0.15 0.4,1.45 -0.05,1.3 -0.45,1.05 -2.55,-1.6 -4.8,2.45 -2.1,3.7 -2.9,10.25 -0.85,6.75 0.2,12.6 1.25,6.65 4.65,9.5 0.4,0.3 -0.5,0.9 -0.9,0.55 -1.3,0.25 -4.1,-3.05 -5.65,-10.1 -1.35,-6.35 -0.3,-13.6 1.05,-7.15 3.85,-11.4 3.05,-4.55 6.8,-3.35"
         id="path76"
         style="fill:#000000" />
      <path
         fill="#0d131a"
         d="m 196.35,83.75 q 1.75,-1.35 4.05,1.15 2.3,2.45 3.95,7.3 4.1,12.15 0.35,23.9 -0.15,0.45 -1.15,0.65 -1,0.15 -0.9,-0.3 3.05,-9.5 0.2,-21.55 -1.15,-4.85 -2.85,-7.65 -1.7,-2.85 -3.1,-2.1 -0.4,0.25 -0.65,-0.45 -0.25,-0.65 0.1,-0.95"
         id="path78"
         style="fill:#000000" />
      <path
         fill="#0d131a"
         d="m 192.65,145.85 q -0.25,-0.4 1.05,-1.2 1.25,-0.85 1.45,-0.45 14.2,22.95 12.65,53.55 -0.15,2.85 -4.35,5.9 -4,2.9 -9.9,4.85 -14.3,4.7 -21.5,-0.35 -4.75,-3.35 -9.85,-12.8 -4.9,-9.05 -5,-13.75 0,-0.45 1.4,-1 l 1.35,-0.15 q 0.1,4.65 4.65,13.15 4.85,9.05 9.75,12.5 6.25,4.35 18.85,0.25 5.1,-1.65 8.6,-4.1 3.65,-2.5 3.75,-4.6 1.45,-28.6 -12.9,-51.8"
         id="path80"
         style="fill:#000000" />
      <path
         fill="#0d131a"
         d="m 164.7,177.55 q -12.95,10.15 -30.9,13.75 -16.65,3.3 -29.75,-0.35 -0.45,-0.15 -0.15,-1.55 0.25,-1.35 0.7,-1.25 12.85,3.6 28.75,0.45 16.15,-3.2 29.3,-12.15 5,-3.4 5.55,-2.7 0.5,0.65 -3.5,3.8"
         id="path82"
         style="fill:#000000" />
      <path
         fill="#0d131a"
         d="m 141.35,187.65 q 0.25,-0.4 2.3,-0.7 l 1.8,0.15 q -3.9,6.4 -9.65,11.15 -6.6,5.45 -12.95,6.25 l -15,-0.45 q -5.9,-1.45 -6.95,-4.4 -0.15,-0.45 0.75,-1.5 0.85,-1.1 1,-0.65 1,2.8 6.15,4.2 5.6,1.55 13.75,0.55 4.75,-0.6 10.05,-4.75 5.25,-4.1 8.75,-9.85"
         id="path84"
         style="fill:#000000" />
      <path
         fill="#0d131a"
         d="m 25,23.9 q 0.4,-0.3 1.95,0 2.4,0.45 4.2,2.15 0.4,0.3 0.05,0.95 -0.3,0.6 -0.7,0.3 -1.05,-0.9 -2.05,-1.2 l -0.95,-0.05 0.2,1.6 0.3,3 q 0.15,6.8 -4.45,17.8 -3.6,8.75 -9.25,18.1 -17.8,29.55 -7.85,51 3.75,8.1 10.75,13.25 6.2,4.5 11.9,4.9 0.45,0.05 -0.15,1.15 Q 28.4,138 27.9,137.95 21.25,137.5 14.6,132.7 7.2,127.3 3.35,118.7 -6.65,96.4 12,65.55 20.8,50.95 23.95,41.55 27.3,31.6 25.05,25.4 24.6,24.25 25,23.9"
         id="path86"
         style="fill:#000000" />
      <path
         fill="#0d131a"
         d="m 50.9,22.15 q 0.35,0.35 0,1.1 -0.35,0.8 -0.7,0.45 -3.75,-3.9 -9.75,-6.25 -5.65,-2.15 -10.15,-1.9 -2.1,0.15 -2.25,0.55 -0.15,0.35 1,2.15 5.45,8.6 0.3,25.4 -2.8,9 -8.75,22.4 -8.8,23.15 -1.4,41.3 3.05,7.5 8.45,12.7 5,4.85 10.8,6.55 0.4,0.1 -0.6,1 -1,0.85 -1.45,0.75 -15.35,-4.5 -21.05,-22.9 -5.95,-19.05 2.9,-40.6 l 4.4,-9.95 Q 25.8,47.6 27.4,42.15 32.3,25.75 26.25,18 q -2.05,-2.65 -1.9,-3.4 0.15,-0.85 3,-1.2 5.35,-0.7 12,1.65 7.05,2.5 11.55,7.1"
         id="path88"
         style="fill:#000000" />
      <path
         fill="#0d131a"
         d="m 47.4,12.5 1.85,1.5 q 0.3,0.35 -0.15,1.45 -0.45,1.05 -0.75,0.7 L 47.3,14.9 q -0.9,-0.9 -1.35,-0.7 -0.4,0.2 -0.3,1.3 l 0.45,2.85 q 0.1,0.4 -0.8,0.4 -0.9,-0.05 -0.95,-0.5 l -0.5,-3.1 q -0.2,-2.55 0.8,-3.35 0.85,-0.65 2.75,0.7"
         id="path90"
         style="fill:#000000" />
      <path
         fill="#0d131a"
         d="m 124.1,26.6 q 10.75,8.65 11.3,20.9 0.05,0.5 -1.3,0.75 -1.35,0.3 -1.35,-0.2 -0.5,-11.2 -10.1,-19.35 Q 111.1,18.9 90.35,18.15 72.6,17.5 64.95,14.2 58.75,11.55 56,5.25 55.4,3.9 55,3.8 q -0.45,-0.15 -1.45,1 -3.35,3.7 -3.95,9.05 -0.6,5.5 2.3,8.55 5.85,6 9.25,14.15 2.1,5.05 5.1,16.85 3.65,14.35 8.05,21.35 3.55,5.65 10.4,10.2 0.3,0.15 -0.4,1.45 -0.65,1.25 -1.05,1 Q 74.45,81.6 70.6,75.1 67.05,69.1 63.75,55.6 60.2,40.95 58.45,36.55 55.75,29.6 50.3,23.95 46.4,19.9 47.8,12 49.15,4.55 53.25,1.35 q 1.85,-1.45 2.6,-1.3 0.75,0.15 1.45,2.1 3,7.8 8.6,10.3 6.3,2.75 24.5,3.45 21.4,0.75 33.7,10.7"
         id="path92"
         style="fill:#000000" />
      <path
         fill="#0d131a"
         d="m 138.7,29.1 q 9.55,8.2 8.25,17.75 -0.05,0.45 -1.5,0.4 -1.45,-0.05 -1.4,-0.5 1.1,-8.2 -6.5,-15.4 -8.75,-8.25 -24.35,-9.4 -0.5,-0.05 -2.9,-1.2 -2.45,-1.2 -2,-1.2 19.3,0 30.4,9.55"
         id="path94"
         style="fill:#000000" />
      <path
         fill="#7cbeb3"
         d="m 59.75,157.95 q 2.7,-10.55 7.55,-15.8 l 37.05,10.8 q 4.85,18.5 0.95,35.25 -2.35,9.95 -7.35,17.75 -2.7,4.25 -11,5.6 Q 78.2,213 70.1,209.8 64.2,207.5 60.85,198.55 57.75,190.4 57.5,179 57.25,167.85 59.75,157.95"
         id="path96"
         style="fill:#000000" />
      <path
         fill="#006359"
         d="m 67.7,171.7 q 0.3,-3.05 7.35,-8.25 7.05,-5.2 8.95,-3.75 1.95,1.45 0.75,15.8 -1.2,14.35 -3.65,14.55 -1.45,0.1 -7.5,-8 -6.1,-8.2 -5.9,-10.35"
         id="path98"
         style="fill:#000000" />
      <path
         fill="#68a198"
         d="m 58.8,160.05 q 0.25,21.45 9.65,35.75 9,13.85 22.5,15.25 -5.5,1.4 -11.9,0.9 -12.8,-1 -17.25,-10.6 -4.45,-9.55 -4.15,-26.4 l 1.15,-14.9"
         id="path100"
         style="fill:#000000" />
      <path
         fill="#0d131a"
         d="m 65.15,147.65 q -6.5,11.15 -5.9,31.95 0.65,21.65 9.1,27.85 5.75,4.2 15.4,3.35 9.3,-0.85 12.3,-5.1 6.8,-9.65 8.9,-23.3 1.9,-12.3 -0.5,-23.4 -1.2,-5.55 -0.3,-5.95 0.9,-0.4 2.4,5 3.1,11.25 1.25,24.35 -2,14.25 -9.15,24.45 -3.7,5.25 -15.3,6.15 -11.35,0.85 -17.1,-3.35 -4.15,-3.05 -6.85,-10.8 -2.6,-7.4 -3.15,-17 -1.35,-21.8 6.9,-35.25 2.9,-4.75 4,-4.55 1.15,0.15 -2,5.6"
         id="path102"
         style="fill:#000000" />
      <path
         fill="#0d131a"
         d="m 68.9,171.2 q -0.1,1.75 5.15,9.8 5.35,8.2 6.85,8 1.65,-0.25 2.7,-13.55 1.05,-13.35 -0.5,-14.45 -1.45,-1 -7.8,3.75 -6.3,4.75 -6.4,6.45 m -2.3,-0.5 q 0.15,-3.65 8.35,-9.2 8.05,-5.4 9.65,-3.9 2.65,2.55 1.5,17.35 -1.2,14.8 -4.25,16.55 -2.1,1.25 -8.75,-7.9 -6.65,-9.1 -6.5,-12.9"
         id="path104"
         style="fill:#000000" />
      <path
         fill="#ffffff"
         d="m 28.9,206.05 q -0.25,-0.75 1.9,-2.55 2.2,-1.8 3.3,-1.65 2,0.25 2.75,4.35 0.7,3.8 0.1,4.35 -0.7,0.65 -3.9,-0.8 -3.45,-1.55 -4.15,-3.7"
         id="path106"
         style="fill:#000000" />
      <path
         fill="#ffffff"
         d="m 43.8,209.8 q -3.5,-1.6 -3.5,-3.2 0,-1.4 2.05,-3.4 2,-2 3.05,-1.5 1.65,0.8 2.7,4.7 1,3.75 0.1,4.35 -0.95,0.65 -4.4,-0.95"
         id="path108"
         style="fill:#000000" />
      <path
         fill="#ffffff"
         d="m 51.65,206.75 q -0.35,-2.6 1.9,-4.8 l 2.35,-1.7 q 1.85,0.8 2.9,4.8 0.95,3.6 0.45,4.2 l -3.95,-0.1 q -3.5,-0.85 -3.65,-2.4"
         id="path110"
         style="fill:#000000" />
      <path
         fill="#ffffff"
         d="m 71.3,210.95 q -0.1,-1.3 0.9,-2.8 1.2,-1.8 3.05,-1.75 1.85,0.05 2.85,1.4 0.8,1.25 0.7,3.05 -0.1,1.65 -1.15,3.7 -1,2.05 -1.6,2.05 -0.65,0 -2.6,-2.15 -2.05,-2.25 -2.15,-3.5"
         id="path112"
         style="fill:#000000" />
      <path
         fill="#ffffff"
         d="M 81.25,212.05 Q 81.1,209.6 82.6,208 q 1.2,-1.35 2.4,-1.35 0.9,0 2.1,1.35 1.2,1.4 1.5,2.8 0.2,0.9 -0.45,3.1 -0.65,2.35 -1.55,2.8 -0.9,0.5 -3,-1.1 -2.25,-1.65 -2.35,-3.55"
         id="path114"
         style="fill:#000000" />
      <path
         fill="#ffffff"
         d="m 91.1,211.75 q -1.4,-1.5 0.25,-4.55 1.65,-3.05 3.25,-2.6 1.5,0.5 2.9,4.2 1.3,3.55 0.65,4.55 -0.6,0.9 -3.1,0.4 -2.55,-0.55 -3.95,-2"
         id="path116"
         style="fill:#000000" />
      <path
         fill="#ffffff"
         d="m 108.1,202.65 q -0.2,-1.05 1.95,-2.6 2.1,-1.5 3.05,-1.1 1.65,0.75 2.15,4.2 0.5,3.35 -0.4,3.75 -0.9,0.4 -3.55,-0.95 -2.85,-1.5 -3.2,-3.3"
         id="path118"
         style="fill:#000000" />
      <path
         fill="#ffffff"
         d="m 121.65,206.05 q -3.05,-1.05 -3.55,-2.4 -0.45,-1.15 1.55,-3.3 2,-2.1 2.9,-1.7 1.75,0.75 2.45,3.85 0.6,2.7 0.1,3.7 l -3.45,-0.15"
         id="path120"
         style="fill:#000000" />
      <path
         fill="#ffffff"
         d="m 127.1,201.9 q -0.6,-1.2 1.7,-3.45 2.25,-2.2 3.25,-1.8 1.15,0.5 2.25,3.65 1.05,3.1 0.55,3.8 l -3.8,-0.1 q -3.3,-0.8 -3.95,-2.1"
         id="path122"
         style="fill:#000000" />
      <path
         fill="#ffffff"
         d="m 183.8,209.6 q -0.7,-0.7 1.1,-3.6 1.8,-2.95 3.05,-2.9 1.65,0.1 3.7,3.6 1.95,3.3 1.5,3.9 -0.55,0.7 -4.25,0.45 -3.85,-0.25 -5.1,-1.45"
         id="path124"
         style="fill:#000000" />
      <path
         fill="#ffffff"
         d="m 194.7,206.85 q -0.7,-0.75 0.9,-3.75 1.55,-3 2.7,-2.9 1.1,0.1 3.1,3.5 1.9,3.35 1.55,4.1 -0.45,0.75 -3.65,0.55 -3.4,-0.2 -4.6,-1.5"
         id="path126"
         style="fill:#000000" />
      <path
         fill="#ffffff"
         d="m 203.05,202.25 q -0.8,-1 0.5,-3.8 1.25,-2.7 2,-2.6 1.3,0.15 3.2,3.3 1.85,3.1 1.4,3.9 -0.35,0.85 -3.15,0.65 -2.95,-0.2 -3.95,-1.45"
         id="path128"
         style="fill:#000000" />
      <path
         fill="#dbdcdc"
         d="m 31.05,203.2 2.2,2.75 q 2.2,3.05 2.45,4.75 l -3.5,-1.8 q -3.45,-1.95 -3.25,-2.8 0.2,-0.85 1.2,-1.95 l 0.9,-0.95"
         id="path130"
         style="fill:#000000" />
      <path
         fill="#dbdcdc"
         d="m 42.3,203.4 1.9,2.35 q 2,2.8 2.65,5.05 -6.15,-2.15 -6.3,-4.25 -0.1,-1.3 0.8,-2.35 l 0.95,-0.8"
         id="path132"
         style="fill:#000000" />
      <path
         fill="#dbdcdc"
         d="m 58,209.6 q -3.2,-0.7 -4.6,-1.4 -1.6,-0.75 -1.8,-1.85 -0.2,-0.95 0.4,-2.2 l 0.65,-1.05 q 1.35,0.65 3.3,3.2 1.65,2.2 2.05,3.3"
         id="path134"
         style="fill:#000000" />
      <path
         fill="#dbdcdc"
         d="m 73.3,207.45 0.5,3.05 q 0.65,3.45 1.6,5.4 l -1.9,-1.65 q -1.85,-2.05 -1.75,-4.2 0.1,-1.5 0.75,-2.2 0.5,-0.55 0.8,-0.4"
         id="path136"
         style="fill:#000000" />
      <path
         fill="#dbdcdc"
         d="m 82.3,209.05 1.9,3.1 2.5,4.6 q -1.4,-0.45 -2.8,-1.3 -2.8,-1.7 -2.6,-3.65 0.2,-1.9 0.6,-2.5 l 0.4,-0.25"
         id="path138"
         style="fill:#000000" />
      <path
         fill="#dbdcdc"
         d="m 91.35,207.25 2.35,2.25 q 2.5,2.55 3.05,4.25 l -3.1,-1 q -3.1,-1.2 -3,-2.35 l 0.4,-2.25 0.3,-0.9"
         id="path140"
         style="fill:#000000" />
      <path
         fill="#dbdcdc"
         d="m 109.75,200.4 q 0.45,0.3 1.9,2.25 1.8,2.45 2,3.95 l -3.6,-1.7 q -1.4,-0.85 -1.45,-2.15 -0.05,-0.95 0.55,-1.75 l 0.6,-0.6"
         id="path142"
         style="fill:#000000" />
      <path
         fill="#dbdcdc"
         d="m 119.1,200.7 1.65,1.15 q 1.9,1.75 3.3,4.6 l -2.7,-0.75 q -2.75,-1 -3.05,-2.3 -0.3,-1.3 0.2,-2.1 l 0.6,-0.6"
         id="path144"
         style="fill:#000000" />
      <path
         fill="#dbdcdc"
         d="m 128.5,198.7 2.05,1.5 q 2.2,1.95 3,4.05 l -2.85,-0.4 q -3,-0.75 -3.55,-2.25 -0.3,-0.7 0.25,-1.75 0.5,-1 1.1,-1.15"
         id="path146"
         style="fill:#000000" />
      <path
         fill="#dbdcdc"
         d="m 185.1,205.75 q 4.2,2 6.75,5 l -3.75,0.05 q -3.75,-0.2 -3.9,-1.5 -0.15,-1.3 0.35,-2.55 l 0.55,-1"
         id="path148"
         style="fill:#000000" />
      <path
         fill="#dbdcdc"
         d="m 195.55,203.6 q 0.85,0.25 2.85,1.5 2.7,1.65 3.35,3.15 l -3.5,-0.15 q -3.55,-0.4 -3.6,-1.55 -0.1,-1.1 0.4,-2.15 l 0.5,-0.8"
         id="path150"
         style="fill:#000000" />
      <path
         fill="#dbdcdc"
         d="m 203.45,198.7 2.2,1.35 q 2.45,1.7 3.4,3.6 l -2.6,-0.2 q -2.7,-0.4 -3.35,-1.35 -0.65,-0.95 -0.2,-2.3 l 0.55,-1.1"
         id="path152"
         style="fill:#000000" />
      <path
         fill="#0d131a"
         d="m 182.85,209.9 q -0.4,-1.45 1.6,-4.65 2,-3.25 3.45,-3.3 1.45,-0.05 4.05,3.8 2.55,3.75 2.2,5.1 -0.3,1.2 -5.6,0.75 -5.3,-0.45 -5.7,-1.7 m 3.25,-3.9 q -1.25,2 -1,2.9 0.5,0.7 3.55,1.15 2.95,0.45 3.2,-0.05 0.25,-0.55 -1.35,-3.2 -1.7,-2.7 -2.65,-2.75 Q 187.3,204 186.1,206"
         id="path154"
         style="fill:#000000" />
      <path
         fill="#0d131a"
         d="m 201.9,207.4 q 0.3,-0.45 -1.3,-3.2 -1.55,-2.75 -2.35,-2.9 -0.6,-0.05 -1.7,2.1 -1.15,2.15 -0.95,3 0.15,0.75 3.15,1.1 l 3.15,-0.1 m -3.4,-8.35 q 1.6,0.2 3.8,4.45 2.1,4.05 1.65,5 -0.45,1 -4.75,0.6 -4.4,-0.45 -5.3,-1.7 -0.8,-1.1 1.05,-4.75 1.85,-3.8 3.55,-3.6"
         id="path156"
         style="fill:#000000" />
      <path
         fill="#0d131a"
         d="m 204.2,199 q -0.75,1.7 -0.3,2.8 0.2,0.6 2.65,0.95 l 2.65,-0.15 q 0.3,-0.5 -1.05,-2.9 -1.35,-2.55 -2.35,-2.5 -0.85,0.1 -1.6,1.8 m -1.1,-1.25 q 1.55,-2.85 2.65,-2.85 1.85,0 3.9,4.15 2,4 1.4,5 l -4.45,0.15 q -4.1,-0.5 -4.45,-1.4 -0.75,-1.95 0.95,-5.05"
         id="path158"
         style="fill:#000000" />
      <path
         fill="#0d131a"
         d="m 86.6,208.7 q -0.85,-1 -1.65,-0.9 -1.15,0.05 -2.05,1.45 -0.9,1.35 -0.75,2.6 0.15,1.15 1.95,2.6 1.75,1.35 2.35,1.1 0.4,-0.15 0.85,-1.45 0.6,-1.5 0.4,-2.8 -0.15,-1.55 -1.1,-2.6 m -5.2,-0.65 q 1.7,-2.5 3.7,-2.35 1.45,0.1 2.6,1.5 1.15,1.4 1.45,3.45 0.35,2 -0.3,4.35 -0.65,2.3 -1.6,2.65 -1.2,0.45 -3.85,-1.3 -2.85,-1.95 -3.25,-4.25 -0.3,-1.75 1.25,-4.05"
         id="path160"
         style="fill:#000000" />
      <path
         fill="#0d131a"
         d="m 77.05,208.6 q -0.65,-0.9 -1.45,-1 -0.95,-0.1 -2,0.8 -1.1,0.9 -1.1,1.95 0.05,1.3 1.45,3.1 1.25,1.7 1.85,1.7 0.55,-0.05 1.2,-1.45 0.7,-1.4 0.75,-2.8 0.05,-1.3 -0.7,-2.3 m -5.15,-1.65 q 1.85,-1.65 3.85,-1.4 1.65,0.2 2.85,1.8 1.15,1.6 1.05,3.55 -0.05,1.6 -1.25,4.1 -1.3,2.6 -2.25,2.7 -1.1,0.15 -3.45,-2.55 -2.5,-2.8 -2.6,-4.75 -0.1,-1.85 1.8,-3.45"
         id="path162"
         style="fill:#000000" />
      <path
         fill="#0d131a"
         d="m 96.3,207.6 q -1.15,-1.6 -2.1,-1.6 -0.95,-0.1 -1.9,1.4 -1,1.55 -0.75,2.9 0.25,1.2 2.8,2.1 2.45,0.8 2.85,0.45 0.35,-0.3 0.15,-2.1 -0.2,-1.95 -1.05,-3.15 m -1.75,-3.8 q 2.45,0.35 3.85,5.15 1.3,4.5 0.5,5.4 l -4.7,-0.3 q -4.2,-1.15 -4.55,-3 -0.4,-2.05 1.15,-4.7 1.7,-2.85 3.75,-2.55"
         id="path164"
         style="fill:#000000" />
      <path
         fill="#0d131a"
         d="m 59.7,204.65 q 1.25,4.8 0.25,5.4 -1.3,0.75 -5.1,-0.3 -3.95,-1.1 -4.4,-2.65 -0.6,-1.85 1.4,-4.75 2.05,-3 4.1,-2.85 2.4,0.15 3.75,5.15 m -7.15,1.65 q 0.15,1.05 2.75,1.9 2.5,0.8 3.05,0.3 0.4,-0.35 -0.45,-3.35 -0.9,-3.2 -2.1,-3.4 -1,-0.15 -2.2,1.35 -1.35,1.6 -1.05,3.2"
         id="path166"
         style="fill:#000000" />
      <path
         fill="#0d131a"
         d="m 41.5,206.6 q 0,1.15 2.75,2.4 2.7,1.2 3.1,0.65 0.45,-0.55 -0.25,-3.25 -0.75,-2.9 -1.95,-3.15 -1.15,-0.25 -2.4,1.05 -1.15,1.2 -1.25,2.2 v 0.1 m -0.05,-3.95 q 2.15,-2 3.8,-1.7 2.5,0.45 3.6,5.25 1.05,4.55 0.05,5.4 -0.95,0.9 -5.3,-1 -4.55,-1.9 -4.35,-4.3 0.15,-1.7 2.2,-3.65"
         id="path168"
         style="fill:#000000" />
      <path
         fill="#0d131a"
         d="m 128.1,201.2 q 0.15,1 2.9,1.9 2.65,0.85 3,0.4 0.35,-0.45 -0.45,-3.1 -0.85,-2.8 -1.85,-2.9 -0.85,-0.1 -2.3,1.3 -1.45,1.45 -1.3,2.4 m 0.05,-3.35 q 2.6,-2.5 4.1,-2 1.9,0.7 3.1,4.75 1.15,3.85 0.4,4.55 -0.75,0.65 -4.9,-0.45 -4.25,-1.15 -4.75,-2.55 -0.6,-1.75 2.05,-4.3"
         id="path170"
         style="fill:#000000" />
      <path
         fill="#0d131a"
         d="m 121.75,205.2 q 2.2,0.75 2.55,0.4 0.35,-0.35 -0.15,-2.85 -0.55,-2.65 -1.55,-2.9 -1,-0.25 -2.35,1.1 -1.35,1.4 -1.1,2.45 0.3,1.05 2.6,1.8 M 123,198 q 1.65,0.4 2.75,4.35 1,3.85 0.2,5.05 -0.5,0.75 -4.45,-0.65 -4.1,-1.45 -4.4,-3.05 -0.35,-1.6 1.9,-3.85 2.3,-2.3 4,-1.85"
         id="path172"
         style="fill:#000000" />
      <path
         fill="#0d131a"
         d="m 111.65,205.1 q 2.2,1.2 2.65,0.9 0.4,-0.25 0.1,-2.9 -0.35,-2.8 -1.4,-3.15 -1,-0.35 -2.4,0.7 -1.35,1 -1.3,2 0.05,1.2 2.35,2.45 m 1.9,-7 q 2.1,0.45 2.5,4.95 0.35,4.25 -0.5,4.85 -0.95,0.6 -4.7,-1.4 -3.8,-2.1 -3.95,-3.65 -0.15,-1.45 2.15,-3.3 2.45,-1.9 4.5,-1.45"
         id="path174"
         style="fill:#000000" />
      <path
         fill="#0d131a"
         d="m 32.85,208.25 q 2.65,1.35 3.05,0.85 0.45,-0.5 -0.15,-3.15 -0.65,-2.75 -1.55,-3 -1.05,-0.35 -2.55,0.8 -1.5,1.15 -1.5,2.25 0.05,0.85 2.7,2.25 m 1.8,-7.55 q 2.15,0.45 3.05,5.25 0.85,4.6 -0.05,5.15 -1.55,1.05 -5.6,-1.1 -4,-2.1 -4.15,-3.75 -0.2,-1.9 2.35,-3.95 2.5,-2 4.4,-1.6"
         id="path176"
         style="fill:#000000" />
    </g>
  </g>
</svg>
