<?xml version="1.0" encoding="UTF-8" standalone="no"?>
<svg
   width="65.47831mm"
   height="65.47831mm"
   viewBox="0 0 232.00975 232.00976"
   version="1.1"
   id="svg886"
   sodipodi:docname="mastodon.svg"
   inkscape:version="1.1.1 (3bf5ae0d25, 2021-09-20)"
   xmlns:inkscape="http://www.inkscape.org/namespaces/inkscape"
   xmlns:sodipodi="http://sodipodi.sourceforge.net/DTD/sodipodi-0.dtd"
   xmlns="http://www.w3.org/2000/svg"
   xmlns:svg="http://www.w3.org/2000/svg">
  <defs
     id="defs890" />
  <sodipodi:namedview
     id="namedview888"
     pagecolor="#ffffff"
     bordercolor="#666666"
     borderopacity="1.0"
     inkscape:pageshadow="2"
     inkscape:pageopacity="0.0"
     inkscape:pagecheckerboard="true"
     inkscape:document-units="mm"
     showgrid="false"
     inkscape:zoom="3.4306208"
     inkscape:cx="115.28526"
     inkscape:cy="123.73854"
     inkscape:window-width="1889"
     inkscape:window-height="1058"
     inkscape:window-x="31"
     inkscape:window-y="0"
     inkscape:window-maximized="1"
     inkscape:current-layer="svg886"
     width="65.47831mm" />
  <path
     id="path882"
     style="fill:#ffffff;stroke-width:1"
     d="M 115.66305,0 C 86.001804,0.2425 57.469998,3.4544481 40.842498,11.090698 c 0,0 -32.9772943,14.751176 -32.9772943,65.081176 0,11.525 -0.2240088,25.305076 0.1409912,39.918826 1.1975,49.22 9.0231391,97.72855 54.5306391,109.77356 20.9825,5.55375 38.998326,6.71729 53.507076,5.9198 26.31125,-1.45875 41.08154,-9.38966 41.08154,-9.38966 l -0.86792,-19.09057 c 0,0 -18.80257,5.92819 -39.91882,5.20569 -20.921246,-0.7175 -43.007848,-2.25564 -46.391598,-27.94189 -0.3125,-2.25626 -0.46875,-4.66963 -0.46875,-7.20337 0,-1e-5 20.538052,5.02027 46.565548,6.21277 15.915,0.72999 30.83918,-0.93235 45.99792,-2.74109 29.07,-3.47126 54.38162,-21.38278 57.56287,-37.74902 5.0125,-25.78126 4.59961,-62.915046 4.59961,-62.915046 0,-50.33 -32.97546,-65.081176 -32.97546,-65.081176 C 174.6026,3.4544481 146.05306,0.2425 116.39181,0 Z M 82.094329,39.325561 c 12.355,0 21.709861,4.748686 27.896121,14.247436 l 6.01502,10.081788 6.01501,-10.081788 c 6.18499,-9.49875 15.53986,-14.247436 27.89611,-14.247436 10.6775,0 19.28083,3.75355 25.85083,11.07605 6.36875,7.322499 9.5398,17.220903 9.5398,29.675903 V 141.01867 H 161.16293 V 81.868285 c 0,-12.468749 -5.246,-18.797607 -15.73975,-18.797607 -11.6025,0 -17.41698,7.506685 -17.41698,22.351685 V 117.79907 H 104.00473 V 85.422363 c 0,-14.845 -5.816324,-22.351685 -17.418824,-22.351685 -10.49375,0 -15.739746,6.328858 -15.739746,18.797607 V 141.01867 H 46.701873 V 80.077514 c 0,-12.455 3.171627,-22.353404 9.541626,-29.675903 6.56875,-7.3225 15.17208,-11.07605 25.85083,-11.07605 z" />
</svg>
