<?xml version="1.0" encoding="UTF-8" standalone="no"?>
<!-- Created with Inkscape (http://www.inkscape.org/) -->

<svg
   width="57.183228mm"
   height="26.087593mm"
   viewBox="0 0 57.183228 26.087593"
   version="1.1"
   id="svg5"
   inkscape:version="1.1.1 (3bf5ae0d25, 2021-09-20)"
   sodipodi:docname="monoid.svg"
   xmlns:inkscape="http://www.inkscape.org/namespaces/inkscape"
   xmlns:sodipodi="http://sodipodi.sourceforge.net/DTD/sodipodi-0.dtd"
   xmlns="http://www.w3.org/2000/svg"
   xmlns:svg="http://www.w3.org/2000/svg">
  <sodipodi:namedview
     id="namedview7"
     pagecolor="#ffffff"
     bordercolor="#666666"
     borderopacity="1.0"
     inkscape:pageshadow="2"
     inkscape:pageopacity="0.0"
     inkscape:pagecheckerboard="0"
     inkscape:document-units="mm"
     showgrid="false"
     inkscape:zoom="2.1946698"
     inkscape:cx="157.42687"
     inkscape:cy="32.123283"
     inkscape:window-width="1889"
     inkscape:window-height="1058"
     inkscape:window-x="31"
     inkscape:window-y="0"
     inkscape:window-maximized="1"
     inkscape:current-layer="layer1"
     fit-margin-top="0"
     fit-margin-left="0"
     fit-margin-right="0"
     fit-margin-bottom="0" />
  <defs
     id="defs2" />
  <g
     inkscape:label="Layer 1"
     inkscape:groupmode="layer"
     id="layer1"
     transform="translate(-95.85491,-102.25708)">
    <path
       id="path2780-6-7-6"
       style="opacity:0.25;fill:#000000;fill-opacity:1;stroke:none;stroke-width:0.264583px;stroke-linecap:butt;stroke-linejoin:miter;stroke-opacity:1"
       d="m 142.53108,105.70588 -6.23044,2.21895 -0.91331,1.72448 0.19791,1.09657 -0.57257,3.72742 0.94309,0.46095 -0.0584,0.2651 c -0.0189,-0.0183 -0.0375,-0.0368 -0.0568,-0.0548 -1.89179,-1.74893 -4.56154,-1.94372 -6.77685,-0.90693 l 0.99374,-6.24561 -5.45389,-2.15212 -0.91317,1.72424 0.0331,2.6231 -1.25729,-2.65049 -6.32909,-2.02822 -0.91285,1.72437 0.59067,3.72432 1.03921,0.15193 0.14418,1.91616 c -2.92215,-1.54853 -6.58178,-0.28845 -8.33851,2.59312 -0.0765,0.1255 -0.14853,0.25176 -0.21705,0.37827 l -3.12952,-7.10706 -5.341783,1.54823 -0.11266,0.6134 -3.090784,-0.55276 -0.913103,1.72426 1.485699,14.611 5.962951,-0.83665 0.91302,-1.72445 1.01863,2.02469 0.91315,-1.72446 0.47591,2.52338 6.4487,-0.58394 0.91321,-1.72447 -1.96069,-0.6542 c 2.09762,0.35127 4.1732,-0.62922 5.63842,-2.25877 l 0.185,2.46083 4.2323,-0.0982 0.31213,1.54668 4.73252,0.62942 0.91315,-1.72414 -0.57932,-0.37289 c 2.04761,1.36639 4.495,1.05969 6.47093,-0.19637 l -0.0894,0.40514 4.4514,1.47588 0.003,-0.008 1.41852,1.2392 c 1.61879,1.41435 7.8893,2.13602 10.82414,-1.97198 0.1879,-0.26301 1.22805,-2.20261 1.33539,-2.53508 1.04114,-3.22472 -2.45205,-7.72204 -5.793,-9.85641 l -2.73575,-1.89497 -1.5043,2.26963 -3.60081,-1.43816 5.80843,-1.18132 0.91256,-1.72381 z m 2.54402,16.05586 c 0,0 0.60251,1.33488 0.16123,1.68827 -0.7414,0.59371 -1.60248,-0.15192 -1.60248,-0.15192 z"
       sodipodi:nodetypes="cccccccccccccccccccscccccccccccccccccccccccccccssccccccccscc" />
    <path
       id="path2780-6-7"
       style="fill:#0f3768;fill-opacity:1;stroke:none;stroke-width:0.264583px;stroke-linecap:butt;stroke-linejoin:miter;stroke-opacity:1"
       d="m 143.44419,103.98162 -6.23044,2.21895 -0.91331,1.72448 0.19791,1.09657 -0.57257,3.72742 0.94309,0.46095 -0.0584,0.2651 c -0.0189,-0.0183 -0.0375,-0.0368 -0.0568,-0.0548 -1.89179,-1.74893 -4.56154,-1.94372 -6.77685,-0.90693 l 0.99374,-6.24561 -5.45389,-2.15212 -0.91317,1.72424 0.0331,2.6231 -1.25729,-2.65049 -6.32909,-2.02822 -0.91285,1.72437 0.59067,3.72432 1.03921,0.15193 0.14418,1.91616 c -2.92215,-1.54853 -6.58178,-0.28845 -8.33851,2.59312 -0.0765,0.1255 -0.14853,0.25176 -0.21705,0.37827 l -3.12952,-7.10706 -5.34179,1.54823 -0.11266,0.6134 -3.090784,-0.55276 -0.913103,1.72426 1.485699,14.611 5.962948,-0.83665 0.91302,-1.72445 1.01864,2.02469 0.91315,-1.72446 0.47591,2.52338 6.4487,-0.58394 0.91321,-1.72447 -1.96069,-0.6542 c 2.09762,0.35127 4.1732,-0.62922 5.63842,-2.25877 l 0.185,2.46083 4.2323,-0.0982 0.31213,1.54668 4.73252,0.62942 0.91315,-1.72414 -0.57932,-0.37289 c 2.04761,1.36639 4.495,1.05969 6.47093,-0.19637 l -0.0894,0.40514 4.4514,1.47588 0.003,-0.008 1.41852,1.2392 c 1.61879,1.41435 7.8893,2.13602 10.82414,-1.97198 0.1879,-0.26301 1.22805,-2.20261 1.33539,-2.53508 1.04114,-3.22472 -2.45205,-7.72204 -5.793,-9.85641 l -2.73575,-1.89497 -1.5043,2.26963 -3.60081,-1.43816 5.80843,-1.18132 0.91256,-1.72381 z m 2.54402,16.05586 c 0,0 0.60251,1.33488 0.16123,1.68827 -0.7414,0.59371 -1.60248,-0.15192 -1.60248,-0.15192 z"
       sodipodi:nodetypes="cccccccccccccccccccscccccccccccccccccccccccccccssccccccccscc" />
    <path
       style="fill:#366eab;fill-opacity:1;stroke:none;stroke-width:0.264583px;stroke-linecap:butt;stroke-linejoin:miter;stroke-opacity:1"
       d="m 99.166636,123.38496 -1.48552,-14.61072 4.003824,-1.17158 0.11254,-0.61355 5.34198,-1.54814 7.75983,17.62263 -6.44903,0.58401 -1.0645,-2.53993 -0.32429,1.74095 -2.13874,-1.97427 0.20695,1.67404 z"
       id="path2780-6" />
    <path
       style="fill:#ffd42a;fill-opacity:1;stroke:none;stroke-width:0.264583px;stroke-linecap:butt;stroke-linejoin:miter;stroke-opacity:1"
       d="m 100.23044,121.82016 -1.022503,-12.07203 3.143583,-1.04362 2.12796,4.08165 -0.42471,-5.05242 2.27676,-0.95369 6.73121,15.20287 -3.84175,0.42431 -2.33487,-6.00227 -0.37874,3.52464 -3.16405,-3.5316 0.64708,5.01573 z"
       id="path2782-7" />
    <path
       id="path2782-7-1"
       style="opacity:0.25;fill:#000000;fill-opacity:1;stroke:none;stroke-width:0.999999px;stroke-linecap:butt;stroke-linejoin:miter;stroke-opacity:1"
       transform="scale(0.26458333)"
       d="m 386.83984,410.85156 -11.88086,3.94532 0.2754,3.24218 11.05078,-4.57031 8.8789,15.80859 -0.28125,-2.99804 z m 15.04297,-7.27344 -8.60547,3.60547 0.1836,2.17969 6.89453,-2.54492 12.76172,28.07617 c -2.45926,8.84048 0.34427,17.47492 9.16406,22.47461 0.45714,0.25915 0.91645,0.49686 1.37695,0.7168 l 1.45313,3.19531 2.21289,-0.24414 z" />
    <path
       style="fill:#366eab;fill-opacity:1;stroke:none;stroke-width:0.264583px;stroke-linecap:butt;stroke-linejoin:miter;stroke-opacity:1"
       d="m 118.68018,107.66045 -1.03883,-0.15161 -0.59113,-3.72458 7.24217,0.30412 1.25708,2.65011 -0.0328,-2.62286 6.36684,0.42801 -2.93139,18.42158 -4.73261,-0.62972 -0.31196,-1.54653 -4.23252,0.0981 z"
       id="path3681-2" />
    <path
       style="fill:#ffd42a;fill-opacity:1;stroke:none;stroke-width:0.264583px;stroke-linecap:butt;stroke-linejoin:miter;stroke-opacity:1"
       d="m 118.28807,104.88758 0.12006,1.65105 1.13338,-0.0909 1.16819,13.303 2.78069,-0.39166 -0.13163,-7.14486 1.87893,9.20911 2.59549,0.25704 2.3966,-16.11655 -3.66603,-0.24776 -0.56701,6.89496 -2.64074,-7.05802 z"
       id="path3683-9"
       sodipodi:nodetypes="ccccccccccccc" />
    <path
       id="path3683-9-3"
       style="opacity:0.25;fill:#000000;fill-opacity:1;stroke:none;stroke-width:0.999999px;stroke-linecap:butt;stroke-linejoin:miter;stroke-opacity:1"
       d="m 447.07227,396.42578 0.15039,2.06445 15.58789,0.81446 13.48047,31.10547 -0.082,-6.30469 -9.98242,-26.67774 z m 31.27929,1.61914 -0.17187,2.0957 10.61133,0.7168 -3.75,25.2207 c -0.58585,0.55998 -1.15109,1.14881 -1.68946,1.76954 -7.35958,8.48538 -8.7994,18.87802 -2.5625,26.80859 l -0.73242,4.93164 3.0918,0.30664 0.55078,-3.70703 h 3.27734 v -22.03516 l 5.23047,-35.17187 z m -12.11328,26.07227 -3.41797,1.87695 0.47266,25.61133 3.44141,-0.48438 z"
       transform="scale(0.26458333)" />
    <path
       style="fill:#366eab;fill-opacity:1;stroke:none;stroke-width:0.264583px;stroke-linecap:butt;stroke-linejoin:miter;stroke-opacity:1"
       d="m 137.782,111.4859 -0.94317,-0.46108 0.57242,-3.72751 7.02992,2.80752 -4.32228,12.4481 -4.45146,-1.47637 z"
       id="path3681-2-0"
       sodipodi:nodetypes="ccccccc" />
    <path
       style="fill:#ffd42a;fill-opacity:1;stroke:none;stroke-width:0.264583px;stroke-linecap:butt;stroke-linejoin:miter;stroke-opacity:1"
       d="m 138.25384,108.72547 -0.38896,1.60906 1.10714,0.25893 -2.33355,9.70649 3.0485,0.91538 3.31269,-10.6922 z"
       id="path3683-9-9"
       sodipodi:nodetypes="ccccccc" />
    <path
       style="fill:#366eab;fill-opacity:1;stroke:none;stroke-width:0.264583px;stroke-linecap:butt;stroke-linejoin:miter;stroke-opacity:1"
       d="m 137.21375,106.20057 1.04009,2.5249 7.62007,-1.54939 -1.51645,-4.919 z"
       id="path4834-3" />
    <path
       style="fill:#ffd42a;fill-opacity:1;stroke:none;stroke-width:0.264583px;stroke-linecap:butt;stroke-linejoin:miter;stroke-opacity:1"
       d="m 139.23037,106.55582 0.26454,0.8262 5.14645,-0.83634 -0.97479,-2.59628 z"
       id="path4836-6" />
    <path
       id="path4836-6-3"
       style="opacity:0.25;fill:#000000;fill-opacity:1;stroke:none;stroke-width:0.999999px;stroke-linecap:butt;stroke-linejoin:miter;stroke-opacity:1"
       transform="scale(0.26458333)"
       d="m 542.99219,392.87891 -16.76758,9.85156 0.1582,0.49219 14.3086,-8.40821 3.13086,8.3418 2.85351,-0.46484 z m -20.45703,18.05273 -0.96094,3.96875 14.35156,5.43555 -0.625,2.01758 -5.88867,8.88476 2.5332,1.94922 -2.42578,7.82812 -12.19531,13.93165 7.20898,2.16406 3.41797,1.02539 12.51953,-40.41211 -1.67968,-0.63672 z" />
    <path
       id="path4978-0"
       style="fill:#366eab;fill-opacity:1;stroke:none;stroke-width:0.264583px;stroke-linecap:butt;stroke-linejoin:miter;stroke-opacity:1"
       d="m 145.17061,107.5257 -3.90157,5.88646 1.36994,1.0542 -5.09788,5.82393 3.99901,3.49396 c 1.61879,1.41435 7.88932,2.13603 10.82415,-1.97197 2.01045,-2.81411 -0.77241,-10.0374 -4.45781,-12.39182 z m 1.73097,10.78769 c 0,0 0.60251,1.33487 0.16124,1.68826 -0.7414,0.59371 -1.60249,-0.15192 -1.60249,-0.15192 z"
       sodipodi:nodetypes="ccccsscccscc" />
    <path
       id="path4982-2"
       style="fill:#ffd42a;fill-opacity:1;stroke:none;stroke-width:0.264583px;stroke-linecap:butt;stroke-linejoin:miter;stroke-opacity:1"
       d="m 145.96539,109.26203 -2.72852,3.83335 1.45366,0.91675 -5.14025,6.3655 c 0,0 0.63107,0.91725 1.81,1.74523 2.76928,1.9449 7.74356,2.4849 9.98699,-0.78497 1.47525,-2.15024 -0.34627,-6.85315 -2.49804,-9.18445 -1.22629,-1.32859 -2.88384,-2.89141 -2.88384,-2.89141 z m 0.98322,7.33053 c 0.0219,-0.0328 2.14013,2.37958 0.92191,3.95841 -1.21825,1.57882 -4.51446,-0.11937 -4.51446,-0.11937 z"
       sodipodi:nodetypes="ccccsssccscc" />
    <path
       style="fill:#366eab;fill-opacity:1;stroke:none;stroke-width:0.264583px;stroke-linecap:butt;stroke-linejoin:miter;stroke-opacity:1"
       d="m 128.60038,112.51946 c -2.25121,2.59558 -2.40945,5.86574 0.24476,8.02392 2.70105,2.19627 6.26082,1.19557 8.4813,-1.17622 1.74931,-1.86852 2.3915,-5.77489 0.34028,-7.67121 -2.62135,-2.42339 -6.73614,-1.86317 -9.06634,0.82351 z"
       id="path2979-3-1"
       sodipodi:nodetypes="sssss" />
    <path
       style="fill:#ffd42a;fill-opacity:1;stroke:none;stroke-width:0.264583px;stroke-linecap:butt;stroke-linejoin:miter;stroke-opacity:1"
       d="m 136.6866,112.0474 c -1.63767,-1.5492 -5.18627,-1.00719 -6.73334,0.63249 -1.72016,1.82314 -2.49308,4.77308 -0.45263,6.88827 1.61849,1.67778 5.36614,0.99827 6.95796,-0.70482 1.55226,-1.66077 2.38952,-4.77122 0.22801,-6.81594 z"
       id="path3147-5-2"
       sodipodi:nodetypes="sssss" />
    <path
       style="fill:#366eab;fill-opacity:1;stroke:none;stroke-width:0.264583px;stroke-linecap:butt;stroke-linejoin:miter;stroke-opacity:1"
       d="m 110.486,112.16988 c -1.78849,2.93364 -1.40101,6.18462 1.57499,7.87163 3.02851,1.71679 6.37245,0.13836 8.16783,-2.5695 1.41442,-2.13328 1.39842,-6.09205 -0.93945,-7.62107 -2.98768,-1.954 -6.95212,-0.71767 -8.80337,2.31894 z"
       id="path2979-3"
       sodipodi:nodetypes="sssss" />
    <path
       style="fill:#ffd42a;fill-opacity:1;stroke:none;stroke-width:0.264583px;stroke-linecap:butt;stroke-linejoin:miter;stroke-opacity:1"
       d="m 118.38129,110.3604 c -1.87238,-1.25546 -5.28153,-0.13119 -6.53456,1.74282 -1.39322,2.08368 -1.66509,5.12106 0.69854,6.86769 1.87484,1.38544 5.45742,0.0925 6.74404,-1.85147 1.25464,-1.89567 1.56327,-5.10201 -0.90802,-6.75904 z"
       id="path3147-5"
       sodipodi:nodetypes="sssss" />
    <path
       id="path3353-6-2"
       style="opacity:0.25;fill:#000000;fill-opacity:1;stroke:none;stroke-width:0.264583px;stroke-linecap:butt;stroke-linejoin:miter;stroke-opacity:1"
       d="m 114.23128,111.81707 c -0.46926,0.32071 -0.43166,0.61253 -0.78334,1.10842 -0.51161,0.72137 0.21373,2.18702 1.04179,2.65151 0.88683,0.49747 2.44346,0.31976 3.00395,-0.52865 0.16314,-0.24694 0.40158,-0.6512 0.52987,-1.02027 l -0.64255,-0.39276 c -0.0291,0.10289 -0.0673,0.19895 -0.11469,0.28494 -0.35272,0.64007 -1.3322,0.77425 -1.89033,0.39894 -0.52112,-0.35044 -0.97773,-1.45616 -0.65577,-2.0004 0.0975,-0.16473 -0.64216,-0.37665 -0.48893,-0.50173 z m 2.17247,-1.98812 c -1.72924,0.01 -3.67579,0.95662 -4.55683,2.27428 -0.19142,0.28629 -0.36179,0.59045 -0.50695,0.90692 0.0546,-0.091 0.1113,-0.18089 0.17002,-0.26871 1.25303,-1.87401 4.6621,-2.99799 6.53448,-1.74253 2.15364,1.44404 2.19604,4.06468 1.34101,5.96914 1.17248,-1.91094 1.40263,-4.99413 -1.00408,-6.60786 -0.55586,-0.37272 -1.24753,-0.53535 -1.97765,-0.53124 z" />
    <path
       id="path3353-6-2-9"
       style="opacity:0.25;fill:#000000;fill-opacity:1;stroke:none;stroke-width:0.264583px;stroke-linecap:butt;stroke-linejoin:miter;stroke-opacity:1"
       d="m 132.07328,113.08361 c -0.46926,0.32071 -0.43166,0.61253 -0.78334,1.10842 -0.51161,0.72137 0.21373,2.18702 1.04179,2.65151 0.88683,0.49747 2.44346,0.31976 3.00395,-0.52865 0.16314,-0.24694 0.44371,-0.72571 0.572,-1.09478 l -0.6584,-0.18064 c -0.0291,0.10289 -0.0936,0.0613 -0.14097,0.14733 -0.35272,0.64007 -1.3322,0.77425 -1.89033,0.39894 -0.52112,-0.35044 -0.97773,-1.45616 -0.65577,-2.0004 0.0975,-0.16473 -0.64216,-0.37665 -0.48893,-0.50173 z m 1.93353,-1.95551 c -1.51085,-0.008 -3.13493,0.57828 -4.0535,1.55184 -0.31007,0.32863 -0.58924,0.69381 -0.82683,1.08417 0.14886,-0.19885 0.30861,-0.38893 0.47749,-0.56792 1.54707,-1.63968 5.09577,-2.18172 6.73344,-0.63252 1.79921,1.702 1.52078,4.14235 0.48163,5.87044 1.30727,-1.72677 1.85481,-4.50695 -0.13229,-6.38669 -0.66531,-0.62936 -1.6462,-0.91361 -2.67994,-0.91932 z" />
    <path
       id="path3353-6"
       style="fill:#366eab;fill-opacity:1;stroke:none;stroke-width:0.264583px;stroke-linecap:butt;stroke-linejoin:miter;stroke-opacity:1"
       d="m 115.51512,111.12371 c -0.66742,0.16505 -1.30351,0.54901 -1.65519,1.0449 -0.51161,0.72137 0.21373,2.18702 1.04179,2.65151 0.88683,0.49747 2.44347,0.31976 3.00395,-0.52865 0.41717,-0.63147 0.31851,-1.67297 -0.11368,-2.39107 0.0944,0.44624 0.0697,0.93011 -0.11369,1.26298 -0.35272,0.64007 -1.3322,0.77425 -1.89033,0.39894 -0.52112,-0.35044 -0.97773,-1.45616 -0.65577,-2.0004 0.0975,-0.16473 0.22969,-0.31313 0.38292,-0.43821 z" />
    <path
       id="path3353-6-7"
       style="fill:#366eab;fill-opacity:1;stroke:none;stroke-width:0.264583px;stroke-linecap:butt;stroke-linejoin:miter;stroke-opacity:1"
       d="m 133.73343,112.32371 c -0.68557,0.0518 -1.37663,0.32473 -1.80584,0.75527 -0.62439,0.6263 -0.15274,2.19212 0.5866,2.78778 0.79181,0.63795 2.35634,0.72143 3.05003,-0.022 0.51633,-0.55335 0.59214,-1.59677 0.28532,-2.37671 0.0189,0.45572 -0.0859,0.92876 -0.32203,1.22652 -0.4542,0.57254 -1.44235,0.54206 -1.93034,0.0792 -0.45563,-0.43218 -0.72211,-1.59841 -0.31417,-2.08157 0.12352,-0.14623 0.27854,-0.27059 0.45043,-0.36847 z" />
    <path
       id="path11528"
       style="opacity:0.25;fill:#000000;fill-opacity:1;stroke:none;stroke-width:0.0700042px;stroke-linecap:butt;stroke-linejoin:miter;stroke-opacity:1"
       d="m 143.35606,120.4316 -0.62632,0.78342 c 0,0 3.29832,1.69982 4.51445,0.11937 l 0.46509,-0.6041 c -1.3237,1.26222 -4.35322,-0.29869 -4.35322,-0.29869 z m 2.60919,-11.16954 -0.60875,0.85525 c 0.0924,0.0873 1.66058,1.57057 2.85099,2.86029 2.09957,2.27475 3.8839,6.80713 2.59881,9.02322 0.19373,-0.20108 0.37518,-0.42125 0.54105,-0.66301 1.47525,-2.15024 -0.34627,-6.85315 -2.49804,-9.18445 -1.22629,-1.32859 -2.88406,-2.8913 -2.88406,-2.8913 z m -1.93218,5.564 -4.48293,5.5516 c 0,0 0.008,0.0118 0.0114,0.016 l 4.48759,-5.55728 z" />
  </g>
</svg>
