<?xml version="1.0" encoding="UTF-8" standalone="no"?>
<!-- Created with Inkscape (http://www.inkscape.org/) -->

<svg
   width="30.332083mm"
   height="42.926178mm"
   viewBox="0 0 30.332083 42.926178"
   version="1.1"
   id="svg5"
   inkscape:version="1.1.1 (3bf5ae0d25, 2021-09-20)"
   sodipodi:docname="question-mark.svg"
   xmlns:inkscape="http://www.inkscape.org/namespaces/inkscape"
   xmlns:sodipodi="http://sodipodi.sourceforge.net/DTD/sodipodi-0.dtd"
   xmlns="http://www.w3.org/2000/svg"
   xmlns:svg="http://www.w3.org/2000/svg">
  <sodipodi:namedview
     id="namedview7"
     pagecolor="#ffffff"
     bordercolor="#666666"
     borderopacity="1.0"
     inkscape:pageshadow="2"
     inkscape:pageopacity="0.0"
     inkscape:pagecheckerboard="0"
     inkscape:document-units="mm"
     showgrid="false"
     inkscape:zoom="0.77593294"
     inkscape:cx="-138.5429"
     inkscape:cy="219.73548"
     inkscape:window-width="1889"
     inkscape:window-height="1058"
     inkscape:window-x="31"
     inkscape:window-y="0"
     inkscape:window-maximized="1"
     inkscape:current-layer="layer1"
     fit-margin-top="0"
     fit-margin-left="0"
     fit-margin-right="0"
     fit-margin-bottom="0" />
  <defs
     id="defs2" />
  <g
     inkscape:label="Layer 1"
     inkscape:groupmode="layer"
     id="layer1"
     transform="translate(-117.06922,-11.676453)">
    <path
       id="path2148"
       style="opacity:0.25;fill:#000000;stroke:#000000;stroke-width:0.264583px;stroke-linecap:butt;stroke-linejoin:miter;stroke-opacity:1"
       d="m 128.28572,31.055132 -1.25208,1.094306 -1.16673,10.89491 0.49803,0.410921 -1.74203,2.055553 3.76251,8.945738 10.90382,-1.634128 1.6048,-1.752264 -5.89729,-11.259957 z m 4.56374,-6.396055 1.32786,-0.112258 0.6197,1.968185 3.89767,-3.067237 -3.70045,-2.087251 -2.33788,1.383872 z m -14.29663,-6.803147 -1.32736,1.469655 4.01221,8.861326 9.1554,0.233514 1.1772,-1.455896 -13.01745,-9.108599" />
    <path
       id="path1857"
       style="fill:#0f3768;fill-opacity:1;stroke:none;stroke-width:0.264583px;stroke-linecap:butt;stroke-linejoin:miter;stroke-opacity:1"
       d="m 127.67097,42.244324 -1.30603,1.210945 -0.0934,1.163471 3.81389,8.229608 10.80861,-1.77818 1.90969,-1.686965 z m 3.02245,-13.459859 -2.4077,2.270667 -0.71586,10.341298 11.10587,1.331492 0.56642,-1.93589 z m 2.77193,-5.950231 2.06241,-0.03894 0.91915,2.476481 2.43504,-2.29287 -1.31984,-2.887567 -4.49741,0.410251 z m -13.19246,-6.6406 -1.72006,1.662296 4.25859,9.08323 8.75886,0.02537 1.60997,-1.620582 z" />
    <path
       id="path963"
       style="fill:#366eab;fill-opacity:1;stroke:none;stroke-width:0.265;stroke-linecap:butt;stroke-linejoin:miter;stroke-miterlimit:4;stroke-dasharray:none;stroke-opacity:1"
       d="m 127.67097,42.244324 11.96286,-0.648284 3.16988,7.787163 -11.12584,2.112426 z m 5.50928,-16.900361 -8.90168,-0.25087 -4.00568,-8.899459 8.16324,-4.517181 17.91814,3.830337 1.04703,10.718784 -7.90072,6.509244 -0.25843,8.057214 -10.18985,-0.840325 1.64112,-11.167242 6.9848,-5.311998 -0.44386,-2.255369 -3.68235,-0.167329 z" />
    <path
       id="path965"
       style="fill:#ffd42a;stroke:none;stroke-width:0.264583px;stroke-linecap:butt;stroke-linejoin:miter;stroke-opacity:1"
       d="m 129.73126,43.528191 2.78115,6.213628 8.14033,-1.436867 -2.21501,-4.91889 z m 2.21166,-19.656441 -6.38585,-0.290906 -3.63865,-6.667052 6.58285,-3.85052 16.14411,3.357432 0.88682,9.595504 -7.59404,5.862461 -0.12936,7.213687 -7.094,-0.493252 1.1141,-8.887184 7.99749,-5.601638 -1.47997,-4.420924 -6.39779,-0.137132 z" />
    <path
       id="path965-3"
       style="opacity:0.25;fill:#000000;stroke:none;stroke-width:0.999999px;stroke-linecap:butt;stroke-linejoin:miter;stroke-opacity:1"
       d="m 485.67383,49.373047 -6.67969,3.90625 63.80274,13.734375 3.68945,33.853518 0.0996,0.13086 3.45703,-2.669925 L 546.6914,62.0625 Z m 13.02929,24.525391 -4.69921,4.5625 0.25195,11.5625 4.42578,0.201171 z m 22.63868,46.587892 -4.70118,3.14453 -0.48632,23.79297 4.69726,0.32617 z m 1.88672,43.49219 -32.90625,0.5371 2.04882,4.57813 25.97461,-0.80664 7.77735,15.25 5.47851,-0.9668 z"
       transform="scale(0.26458333)" />
  </g>
</svg>
