<?xml version="1.0" encoding="UTF-8" standalone="no"?>
<!-- Created with Inkscape (http://www.inkscape.org/) -->

<svg
   width="129.5742mm"
   height="105.61014mm"
   viewBox="0 0 129.5742 105.61014"
   version="1.1"
   id="svg5"
   inkscape:version="1.1.1 (3bf5ae0d25, 2021-09-20)"
   sodipodi:docname="starburst.svg"
   xmlns:inkscape="http://www.inkscape.org/namespaces/inkscape"
   xmlns:sodipodi="http://sodipodi.sourceforge.net/DTD/sodipodi-0.dtd"
   xmlns="http://www.w3.org/2000/svg"
   xmlns:svg="http://www.w3.org/2000/svg">
  <sodipodi:namedview
     id="namedview7"
     pagecolor="#ffffff"
     bordercolor="#666666"
     borderopacity="1.0"
     inkscape:pageshadow="2"
     inkscape:pageopacity="0.0"
     inkscape:pagecheckerboard="true"
     inkscape:document-units="mm"
     showgrid="false"
     fit-margin-top="0"
     fit-margin-left="0"
     fit-margin-right="0"
     fit-margin-bottom="0"
     inkscape:zoom="0.77593294"
     inkscape:cx="119.21133"
     inkscape:cy="269.99756"
     inkscape:window-width="1889"
     inkscape:window-height="1058"
     inkscape:window-x="31"
     inkscape:window-y="0"
     inkscape:window-maximized="1"
     inkscape:current-layer="layer1" />
  <defs
     id="defs2" />
  <g
     inkscape:label="Layer 1"
     inkscape:groupmode="layer"
     id="layer1"
     transform="translate(-11.153625,-0.77554685)">
    <g
       id="g2237">
      <path
         style="fill:#65c4e0;fill-opacity:1;stroke-width:0.264583"
         d="m 13.231171,48.600782 c 3.884749,-0.267041 10.801175,-0.549586 14.38981,-0.587844 1.967809,-0.02097 5.593322,-0.220128 8.056696,-0.442562 4.967252,-0.448517 6.917291,-0.254114 17.669361,1.761477 6.020807,1.128671 5.981842,1.134291 4.031622,-0.58168 -0.293363,-0.258133 -0.218641,-0.410046 0.398459,-0.809735 l 0.759583,-0.491975 -2.921653,-2.442117 c -1.606911,-1.343162 -4.669172,-3.721791 -6.805029,-5.285838 -3.786498,-2.772782 -9.224082,-7.073004 -9.518461,-7.52751 -0.08081,-0.124763 0.851301,-0.273495 2.07136,-0.330519 l 2.218276,-0.103672 3.424803,2.037423 c 4.056803,2.413408 8.896864,5.529545 13.790507,8.878641 1.952359,1.336141 3.506861,2.357907 3.454458,2.27058 -0.05197,-0.0876 -1.366045,-1.467022 -2.919188,-3.066006 -3.38242,-3.482253 -7.974528,-8.717159 -11.387202,-12.981208 -2.849295,-3.560107 -7.540493,-9.827691 -7.499477,-10.019522 0.03478,-0.16266 4.476381,3.274911 7.692865,5.953863 5.404002,4.500918 8.453525,7.394072 13.921117,13.207296 l 3.316485,3.526125 -4.937756,-7.664472 C 57.363773,26.025363 51.74898,16.74681 47.15957,8.65382 L 44.5522,4.055965 45.545817,2.684322 c 0.546484,-0.754399 1.147304,-1.558345 1.335159,-1.78655 0.335081,-0.407059 0.440325,-0.256064 5.563218,7.982333 6.129631,9.85735 10.524297,17.280734 14.14606,23.895179 3.541307,6.467526 7.437974,12.820385 6.988172,11.393056 C 73.39693,43.592383 72.572144,41.00579 71.745578,38.420349 69.8212,32.401045 67.268552,23.194222 67.485141,23.05394 c 0.09174,-0.05942 0.715073,0.211029 1.385194,0.600988 l 1.218402,0.709017 1.823852,4.649694 c 1.003121,2.557329 1.971012,5.121796 2.15088,5.698808 0.17986,0.577018 0.713221,1.646607 1.185241,2.37687 l 0.857775,1.328038 -0.237917,-4.566605 c -0.381959,-7.331816 -0.455351,-18.307102 -0.121933,-18.235807 0.523681,0.11197 2.930256,10.415665 3.620635,15.501624 0.423644,3.120986 0.462636,3.247723 0.607571,1.974913 0.798207,-7.008973 2.328601,-16.75013 3.914894,-24.918278 l 0.9804,-5.048246 -0.08249,2.732901 c -0.214055,7.091742 -0.828511,15.876895 -1.697417,24.268972 -0.250143,2.415926 -0.352299,4.0274 -0.227012,3.581057 1.539228,-5.483691 5.191916,-16.890058 5.979926,-18.673734 0.284254,-0.643399 0.382646,-0.68274 1.59294,-0.63693 1.176485,0.04453 3.193231,0.943939 3.630531,1.619107 0.274827,0.424319 -3.404117,12.308759 -5.938075,19.182315 -0.613156,1.663244 -1.094715,3.055149 -1.070127,3.093112 0.02457,0.03794 0.561673,-0.898325 1.193531,-2.080656 2.498151,-4.674584 10.795107,-18.457285 12.290648,-20.416942 0.40335,-0.528517 0.4104,-0.504535 0.13096,0.445533 -0.16244,0.552261 -1.199602,3.477166 -2.304806,6.499784 l -2.009462,5.495667 1.501801,-0.574966 c 0.82599,-0.316235 1.597784,-0.529493 1.715098,-0.473911 0.316564,0.149995 -1.201213,5.194569 -2.420842,8.046041 -1.094058,2.557876 -3.119865,5.415863 -7.008944,9.888167 -0.967313,1.11236 -1.70793,2.033344 -1.645821,2.046624 0.06209,0.01328 1.69543,-1.349124 3.629617,-3.027565 6.443937,-5.591872 13.268569,-11.058162 24.476339,-19.604668 1.10941,-0.845975 1.07297,-0.773467 -0.82641,1.644277 -5.25226,6.685723 -8.8389,10.329387 -15.982788,16.236882 l -3.16903,2.620565 3.323202,-1.926333 C 106.65118,39.226693 118.73563,33.005803 127.6604,28.84612 c 2.37578,-1.107307 4.45064,-1.846238 7.30021,-2.599874 l 3.98107,-1.052874 0.89307,1.232251 0.89308,1.232258 -1.70046,0.928115 c -0.93527,0.51045 -3.41553,1.893907 -5.51174,3.074305 -6.93673,3.906146 -19.48522,10.488343 -22.0662,11.57461 l -0.81287,0.342125 1.39915,0.658468 c 0.84245,0.396475 2.6099,0.786952 4.44214,0.981382 1.67363,0.177605 3.03084,0.379645 3.01602,0.448986 -0.0875,0.409404 -17.99032,5.863818 -25.322289,7.714895 -1.331793,0.33624 -2.476469,0.646971 -2.543699,0.690515 -0.06723,0.04354 1.83643,-0.04713 4.230359,-0.201517 2.393938,-0.154391 5.013259,-0.268979 5.820719,-0.254655 1.9149,0.03398 9.83758,0.537165 9.89677,0.628559 0.0883,0.136248 -5.26469,0.960766 -10.3189,1.58943 -2.807903,0.349263 -4.947524,0.659561 -4.754714,0.689565 0.192811,0.03 2.175375,0.134255 4.405684,0.231665 8.12933,0.35503 25.93532,1.87384 30.69726,2.61838 l 1.22764,0.19195 -1.38879,0.0459 c -6.0946,0.20156 -26.88356,-0.4468 -35.305643,-1.10111 -2.233937,-0.17355 -4.114712,-0.28121 -4.1795,-0.23925 -0.237337,0.15372 4.202325,1.60042 6.799734,2.21575 4.144759,0.9819 9.645319,2.52628 15.953019,4.4791 6.82411,2.1127 8.14083,2.57367 8.08586,2.83076 -0.0226,0.10579 -0.71538,0.65464 -1.53946,1.21962 -1.27421,0.87356 -1.83792,1.08533 -3.7688,1.41535 -2.18102,0.3728 -2.59871,0.32059 -10.60005,-1.32518 -4.58126,-0.9423 -8.174738,-1.60077 -7.985516,-1.46325 0.18925,0.13749 2.105686,1.4496 4.258816,2.91577 4.93286,3.35901 12.19527,8.76833 12.13713,9.0402 -0.0242,0.11326 -0.66922,0.43703 -1.43293,0.72014 l -1.38891,0.51422 -5.4797,-3.58033 c -6.68043,-4.36488 -11.679844,-7.78722 -16.288749,-11.15043 -3.524978,-2.57224 -4.461679,-3.07607 -2.428751,-1.30637 5.577461,4.85528 15.51979,15.68012 22.48482,24.48065 1.49681,1.89127 3.09306,3.90726 3.54722,4.47999 0.77418,0.97627 0.67493,0.93223 -1.58833,-0.70502 -1.32775,-0.96049 -4.12713,-3.11929 -6.22083,-4.79734 l -3.80672,-3.05098 0.71882,1.42581 c 1.77079,3.51239 4.69967,9.56943 4.67747,9.67322 -0.0347,0.1625 -1.82643,-1.81349 -5.45567,-6.01685 -2.881127,-3.33692 -4.831402,-5.74667 -12.888596,-15.92506 -3.913762,-4.94415 -3.947657,-4.96429 -2.538212,-1.50834 2.073148,5.0833 7.05395,18.77968 8.628802,23.7278 2.145312,6.740451 3.083045,9.828681 2.977609,9.806131 -0.238421,-0.051 -4.779346,-5.72915 -5.623167,-7.031451 -1.148216,-1.77229 -3.941636,-7.5939 -5.91247,-12.32239 -1.629181,-3.90881 -5.992289,-13.01494 -6.268981,-13.08382 -0.04985,-0.0124 -0.05427,1.19626 -0.01,2.68593 0.0443,1.48965 0.0335,4.50264 -0.02401,6.69552 l -0.10455,3.98706 -0.836628,-0.54038 c -0.46015,-0.2972 -0.885698,-0.56243 -0.945678,-0.58938 -0.05997,-0.0269 -0.687217,2.79083 -1.393871,6.26175 l -1.28484,6.31076 -0.179489,-3.03607 c -0.216865,-3.66802 -0.322848,-9.37597 -0.254827,-13.7238 l 0.05012,-3.20341 -0.95482,1.20405 c -0.525146,0.66222 -1.223109,1.91588 -1.551016,2.78591 -1.326366,3.51921 -7.228239,16.41352 -9.024863,19.717371 -0.794398,1.46084 -0.683017,0.7609 1.396731,-8.777361 l 2.259956,-10.36479 -2.117445,1.58083 c -1.164574,0.8695 -2.630057,1.99399 -3.256571,2.49895 l -1.139132,0.9181 0.458513,-1.97682 c 0.25218,-1.08725 0.721674,-2.86186 1.043321,-3.94356 l 0.584809,-1.96675 -0.770426,-0.34036 c -0.755857,-0.33393 -0.769652,-0.368 -0.729679,-1.80103 0.0224,-0.80335 0.0018,-1.43541 -0.04587,-1.40455 -0.04767,0.0309 -1.286403,1.24975 -2.75282,2.70867 -3.732526,3.71341 -12.661031,11.79955 -12.796992,11.58963 -0.03686,-0.0569 -0.150028,-0.87465 -0.251536,-1.81729 l -0.184557,-1.71387 2.301857,-2.68269 c 2.648934,-3.08719 9.527077,-10.52941 11.314233,-12.24212 0.666562,-0.6388 1.118777,-1.20559 1.00492,-1.25953 -0.113824,-0.054 -0.744336,0.0692 -1.401066,0.27358 -0.656731,0.20442 -1.283108,0.32948 -1.391954,0.2779 -0.32264,-0.15286 9.71495,-8.14276 13.101043,-10.42839 1.353091,-0.91332 0.993004,-0.75075 -1.573103,0.71043 -5.317147,3.02762 -12.792155,6.7813 -16.186843,8.12845 -3.322015,1.31832 -11.286005,4.06636 -11.594233,4.0007 -0.345413,-0.0736 11.18018,-6.37536 16.411878,-8.97342 5.788891,-2.87476 5.71217,-2.81456 2.299099,-1.80402 -1.745753,0.51688 -5.63157,1.59206 -8.635159,2.38929 l -5.461062,1.4495 -1.376096,-0.7114 c -0.756845,-0.39127 -1.364596,-0.76515 -1.35055,-0.83084 0.0336,-0.15713 4.768468,-2.3303 7.322685,-3.36091 1.837042,-0.74122 2.06601,-0.89094 2.636,-1.72363 0.343313,-0.50154 0.560433,-0.92198 0.48248,-0.93431 -0.07792,-0.0123 -1.724083,-0.18551 -3.658064,-0.38485 -1.933982,-0.19934 -3.790703,-0.39751 -4.126039,-0.44038 -0.588869,-0.0753 -3.112096,-1.76495 -3.052426,-2.04403 0.05942,-0.27786 8.282817,-0.945559 14.847589,-1.205556 1.774937,-0.0703 3.066336,-0.157089 2.869781,-0.192877 -0.196528,-0.03576 -2.785181,-0.309235 -5.752536,-0.607702 C 43.047576,53.871014 25.44656,51.379445 13.796508,49.231169 l -2.642883,-0.487353 2.077137,-0.142782 z"
         id="path1594" />
      <path
         style="fill:#ffffff;fill-opacity:1;stroke-width:0.264583"
         d="m 41.516564,51.842357 c 2.274057,-0.152405 6.03548,-0.246907 7.700436,-0.193467 0.702621,0.02257 2.339406,-0.06122 3.637298,-0.186168 3.189254,-0.307018 4.301423,-0.201934 9.651912,0.912058 4.089777,0.851502 4.531097,0.889731 3.993899,0.346003 -0.506861,-0.513021 -0.541256,-0.667325 -0.213976,-0.960013 0.430518,-0.385023 0.0044,-0.761376 -7.556741,-6.674328 -1.735126,-1.356906 -3.094857,-2.504929 -3.021614,-2.551171 0.07323,-0.04623 0.672859,-0.111688 1.332475,-0.145435 1.04377,-0.05342 1.56781,0.171682 4.040611,1.735557 1.562722,0.988303 4.143142,2.698023 5.734265,3.799387 1.591122,1.101354 2.895882,1.974388 2.899465,1.940073 0.0036,-0.03437 -1.019876,-1.174463 -2.274349,-2.53366 -2.485549,-2.693041 -6.079939,-7.123551 -8.393457,-10.345938 l -1.468515,-2.045431 1.162804,0.830377 c 3.089275,2.206101 10.158384,8.866361 12.52793,11.803382 0.27593,0.342081 -1.74564,-3.098618 -4.492462,-7.645939 -2.746837,-4.547313 -5.646935,-9.446409 -6.444674,-10.886876 l -1.450434,-2.619033 0.572903,-0.816451 c 0.315093,-0.449046 0.67717,-0.882282 0.804607,-0.96274 0.273975,-0.172975 8.794155,13.80737 11.016766,18.076803 0.775425,1.489545 2.055067,3.849786 2.843644,5.244982 l 1.433777,2.536721 -0.815703,-2.770489 c -1.670786,-5.674785 -2.829753,-10.103752 -2.670285,-10.20443 0.09047,-0.05713 0.455495,0.101667 0.811152,0.352869 0.670036,0.47325 1.644715,2.625869 2.652852,5.859065 0.239521,0.768115 0.63767,1.551355 0.884797,1.740516 0.374423,0.28662 0.433086,-0.08116 0.351968,-2.206638 -0.148553,-3.89215 -0.111848,-9.947286 0.06006,-9.908441 0.27077,0.06119 1.326236,4.449401 1.777017,7.388179 l 0.437591,2.852757 0.199296,-1.220986 c 1.220171,-7.475552 2.150477,-12.716276 2.502228,-14.0959 l 0.427869,-1.678199 -0.08987,1.777708 c -0.183795,3.635572 -0.533861,8.090403 -0.879322,11.189842 -0.195751,1.756297 -0.394976,3.571755 -0.442712,4.034344 -0.04775,0.462592 0.156725,-0.03011 0.454365,-1.094959 0.297652,-1.064827 1.138085,-3.693079 1.867628,-5.840564 1.215125,-3.576834 1.38503,-3.912512 2.0245,-3.999781 0.383919,-0.05238 1.074737,0.125654 1.535147,0.39566 l 0.837097,0.490917 -0.464241,1.686543 c -0.255336,0.927603 -1.090529,3.482381 -1.855982,5.677287 -0.765454,2.194904 -1.429739,4.153567 -1.476186,4.352583 -0.04646,0.199023 1.122194,-1.629871 2.596974,-4.064187 1.474781,-2.434314 3.223092,-5.240771 3.885117,-6.23656 1.134565,-1.706548 1.185838,-1.753426 0.892746,-0.816225 -0.171023,0.546866 -0.781095,2.226175 -1.355699,3.731788 l -1.044747,2.737482 0.98953,-0.294871 0.989536,-0.294876 -0.383557,1.370249 c -0.745696,2.663996 -1.879168,4.809379 -3.708512,7.019298 -0.997354,1.204844 -1.752571,2.204354 -1.678251,2.221147 0.07433,0.01676 1.701473,-1.245366 3.615919,-2.804807 4.147785,-3.378639 10.083363,-7.967256 11.203908,-8.661402 1.174176,-0.727364 0.730676,-0.04313 -1.853667,2.859884 -1.850357,2.07853 -5.743538,5.659029 -8.560327,7.872822 -0.402578,0.316389 -0.06703,0.178789 0.74566,-0.305778 2.315581,-1.380673 9.307046,-4.934788 14.21268,-7.225003 3.77619,-1.762953 5.049,-2.227114 8.1913,-2.987185 2.04623,-0.494948 4.26935,-0.988163 4.94028,-1.096039 l 1.21985,-0.196133 -1.84343,1.045035 c -5.73344,3.250231 -10.71104,5.930253 -14.76495,7.949676 -2.517254,1.253959 -4.685482,2.348525 -4.818297,2.432374 -0.451909,0.285314 1.266577,0.909196 2.936417,1.066042 0.90924,0.08541 1.63781,0.223174 1.61905,0.306145 -0.0469,0.207745 -7.689742,2.499074 -11.929494,3.57649 -1.915298,0.486723 -3.66272,0.933805 -3.883151,0.993541 -0.220451,0.0597 0.554704,0.05853 1.722535,-0.0027 2.956536,-0.154959 4.611184,-0.144869 6.907186,0.0421 3.419398,0.278455 3.343225,0.312973 -2.189008,0.99197 -1.916222,0.23515 -3.32765,0.452859 -3.136516,0.483732 0.191139,0.03087 2.71072,0.230853 5.599067,0.444361 7.483631,0.553226 15.596651,1.522396 13.283291,1.586826 -3.04572,0.08481 -16.324482,-0.531132 -20.192071,-0.936623 -2.850977,-0.298895 -2.016112,0.101269 3.272604,1.568644 6.319309,1.753307 12.285317,3.728926 12.288577,4.069312 0.005,0.533399 -1.40452,1.187075 -3.01687,1.398983 -1.170483,0.153813 -2.811219,-0.06408 -6.22829,-0.827407 l -4.639184,-1.036263 1.948627,1.331903 c 1.071751,0.732552 3.247404,2.311807 4.834774,3.509457 2.606914,1.966892 2.850726,2.209382 2.520167,2.506478 -0.201293,0.180893 -0.613675,0.346764 -0.916462,0.368493 -0.605562,0.04353 -4.825169,-2.710792 -10.87801,-7.100565 -2.156613,-1.564059 -3.869782,-2.758807 -3.807048,-2.654986 0.06304,0.103605 0.796278,0.837534 1.63011,1.6305 2.59599,2.468777 6.19096,6.411648 9.083419,9.962462 3.911181,4.801418 4.937412,6.140577 4.657112,6.077236 -0.134356,-0.03035 -1.637084,-1.175524 -3.33952,-2.544852 -1.702444,-1.369317 -3.183933,-2.50968 -3.292204,-2.534151 -0.108283,-0.02445 0.03996,0.330543 0.329316,0.788912 0.662589,1.049477 2.722949,5.399278 2.537635,5.357401 -0.237951,-0.05377 -6.160402,-7.221287 -8.43326,-10.206157 -2.881615,-3.784334 -4.403124,-5.672873 -4.049181,-5.025943 0.881462,1.611104 5.898379,16.24899 6.897381,20.124487 0.285457,1.10743 0.273611,1.155054 -0.13862,0.556874 -0.247941,-0.359749 -1.03756,-1.398484 -1.754733,-2.308274 -1.266097,-1.606133 -2.769634,-4.510468 -4.221837,-8.155507 -0.877297,-2.201932 -2.794489,-6.395983 -3.262856,-7.13783 -0.380923,-0.603348 -0.434113,-0.338697 -0.462812,2.302306 -0.01784,1.641209 -0.07053,3.351705 -0.117095,3.801109 l -0.08467,0.817115 -0.437576,-0.409163 c -0.240698,-0.225026 -0.470089,-0.388642 -0.509829,-0.363542 -0.03973,0.02508 -0.423153,1.640016 -0.852021,3.58873 -0.752094,3.417346 -0.78265,3.489393 -0.860881,2.029797 -0.07189,-1.341385 -0.118325,-6.656421 -0.07866,-9.00481 l 0.01459,-0.864157 -0.636865,0.907612 c -0.350281,0.49918 -0.798491,1.332677 -0.996038,1.852214 -0.502335,1.32111 -3.937164,8.639162 -4.81056,10.24913 -0.632662,1.166206 -0.556868,0.593228 0.60636,-4.583882 l 1.329398,-5.916684 -1.935736,1.444914 -1.935744,1.444926 0.654339,-2.227998 c 0.510122,-1.736953 0.560396,-2.281313 0.228088,-2.469925 -0.280719,-0.159332 -0.414494,-0.486437 -0.391952,-0.958011 0.04437,-0.926083 -0.130946,-0.942013 -0.898451,-0.08157 -0.580768,0.651128 -7.507693,6.925172 -7.963593,7.213008 -0.111478,0.0704 -0.257454,-0.333423 -0.324415,-0.89732 -0.108906,-0.91714 0.0256,-1.196769 1.27466,-2.650944 0.768015,-0.894114 2.735621,-3.005957 4.372454,-4.692996 2.873867,-2.962034 2.944319,-3.059961 2.051695,-2.85191 l -0.924357,0.215482 0.694719,-0.634276 c 1.104116,-1.008059 4.909552,-3.916898 6.512158,-4.977827 1.048514,-0.694125 0.635746,-0.521184 -1.449045,0.607098 -4.332124,2.34455 -7.962491,3.965963 -11.730906,5.239318 -1.852416,0.625944 -3.355491,1.082608 -3.340179,1.014833 0.04092,-0.181068 6.112427,-3.406351 9.439337,-5.014325 2.86871,-1.386509 3.68655,-1.902354 2.086049,-1.315722 -0.464204,0.170136 -2.663442,0.775838 -4.887201,1.346002 -3.622705,0.928836 -4.131691,0.99124 -4.894131,0.600029 l -0.85094,-0.436629 1.182498,-0.531601 c 0.650376,-0.292374 1.921751,-0.828846 2.825288,-1.19215 1.06507,-0.428246 1.761674,-0.838898 1.980866,-1.167724 0.310604,-0.465976 0.142577,-0.531137 -2.067673,-0.80195 -2.01391,-0.246743 -4.006755,-1 -3.899646,-1.473998 0.02646,-0.117098 6.670414,-0.591757 8.44571,-0.60338 1.495049,-0.0098 0.299734,-0.219141 -5.453039,-0.955162 -5.372867,-0.687398 -14.578379,-2.148025 -18.777834,-2.97945 l -2.324421,-0.460185 1.801208,-0.120717 z m 42.973722,-0.668425 c 0.133384,-0.184098 0.0469,-0.203648 -0.220505,-0.04983 -0.241968,0.13919 -0.340731,0.275478 -0.219457,0.302894 0.121261,0.02741 0.31926,-0.08652 0.439954,-0.253075 z"
         id="path1884"
         inkscape:transform-center-x="4.5496181"
         inkscape:transform-center-y="3.5210769" />
    </g>
  </g>
</svg>
